<mxfile host="app.diagrams.net" modified="2024-05-15T14:56:25.357Z" agent="Mozilla/5.0 (Windows NT 10.0; Win64; x64) AppleWebKit/537.36 (KHTML, like Gecko) Chrome/122.0.0.0 Safari/537.36" etag="5XwMcDG9Mg-vlgIQJ5QY" version="24.4.0" type="github" pages="2">
  <diagram id="C5RBs43oDa-KdzZeNtuy" name="diagrama-de-clase">
    <mxGraphModel grid="1" page="1" gridSize="10" guides="1" tooltips="1" connect="1" arrows="1" fold="1" pageScale="1" pageWidth="827" pageHeight="1169" math="0" shadow="0">
      <root>
        <mxCell id="WIyWlLk6GJQsqaUBKTNV-0" />
        <mxCell id="WIyWlLk6GJQsqaUBKTNV-1" parent="WIyWlLk6GJQsqaUBKTNV-0" />
        <mxCell id="zkfFHV4jXpPFQw0GAbJ--0" value="Announcement" style="swimlane;fontStyle=0;align=center;verticalAlign=top;childLayout=stackLayout;horizontal=1;startSize=26;horizontalStack=0;resizeParent=1;resizeLast=0;collapsible=1;marginBottom=0;rounded=0;shadow=0;strokeWidth=1;" parent="WIyWlLk6GJQsqaUBKTNV-1" vertex="1">
          <mxGeometry x="140" y="330" width="310" height="240" as="geometry">
            <mxRectangle x="230" y="140" width="160" height="26" as="alternateBounds" />
          </mxGeometry>
        </mxCell>
        <mxCell id="zkfFHV4jXpPFQw0GAbJ--1" value="-id: Long" style="text;align=left;verticalAlign=top;spacingLeft=4;spacingRight=4;overflow=hidden;rotatable=0;points=[[0,0.5],[1,0.5]];portConstraint=eastwest;" parent="zkfFHV4jXpPFQw0GAbJ--0" vertex="1">
          <mxGeometry y="26" width="310" height="26" as="geometry" />
        </mxCell>
        <mxCell id="zkfFHV4jXpPFQw0GAbJ--2" value="-user: User" style="text;align=left;verticalAlign=top;spacingLeft=4;spacingRight=4;overflow=hidden;rotatable=0;points=[[0,0.5],[1,0.5]];portConstraint=eastwest;rounded=0;shadow=0;html=0;" parent="zkfFHV4jXpPFQw0GAbJ--0" vertex="1">
          <mxGeometry y="52" width="310" height="26" as="geometry" />
        </mxCell>
        <mxCell id="zkfFHV4jXpPFQw0GAbJ--3" value="-title: String" style="text;align=left;verticalAlign=top;spacingLeft=4;spacingRight=4;overflow=hidden;rotatable=0;points=[[0,0.5],[1,0.5]];portConstraint=eastwest;rounded=0;shadow=0;html=0;" parent="zkfFHV4jXpPFQw0GAbJ--0" vertex="1">
          <mxGeometry y="78" width="310" height="26" as="geometry" />
        </mxCell>
        <mxCell id="zlm5GG81audVKw1eRPGY-110" value="-description: String" style="text;align=left;verticalAlign=top;spacingLeft=4;spacingRight=4;overflow=hidden;rotatable=0;points=[[0,0.5],[1,0.5]];portConstraint=eastwest;rounded=0;shadow=0;html=0;" vertex="1" parent="zkfFHV4jXpPFQw0GAbJ--0">
          <mxGeometry y="104" width="310" height="26" as="geometry" />
        </mxCell>
        <mxCell id="zlm5GG81audVKw1eRPGY-111" value="-points: String" style="text;align=left;verticalAlign=top;spacingLeft=4;spacingRight=4;overflow=hidden;rotatable=0;points=[[0,0.5],[1,0.5]];portConstraint=eastwest;rounded=0;shadow=0;html=0;" vertex="1" parent="zkfFHV4jXpPFQw0GAbJ--0">
          <mxGeometry y="130" width="310" height="26" as="geometry" />
        </mxCell>
        <mxCell id="zlm5GG81audVKw1eRPGY-112" value="-status: AnnouncementStatus" style="text;align=left;verticalAlign=top;spacingLeft=4;spacingRight=4;overflow=hidden;rotatable=0;points=[[0,0.5],[1,0.5]];portConstraint=eastwest;rounded=0;shadow=0;html=0;" vertex="1" parent="zkfFHV4jXpPFQw0GAbJ--0">
          <mxGeometry y="156" width="310" height="26" as="geometry" />
        </mxCell>
        <mxCell id="zlm5GG81audVKw1eRPGY-113" value="-createdAt: LocalDateTime" style="text;align=left;verticalAlign=top;spacingLeft=4;spacingRight=4;overflow=hidden;rotatable=0;points=[[0,0.5],[1,0.5]];portConstraint=eastwest;rounded=0;shadow=0;html=0;" vertex="1" parent="zkfFHV4jXpPFQw0GAbJ--0">
          <mxGeometry y="182" width="310" height="26" as="geometry" />
        </mxCell>
        <mxCell id="zlm5GG81audVKw1eRPGY-114" value="-favoriteAnnouncements: List&lt;FavoriteAnnouncements&gt;" style="text;align=left;verticalAlign=top;spacingLeft=4;spacingRight=4;overflow=hidden;rotatable=0;points=[[0,0.5],[1,0.5]];portConstraint=eastwest;rounded=0;shadow=0;html=0;" vertex="1" parent="zkfFHV4jXpPFQw0GAbJ--0">
          <mxGeometry y="208" width="310" height="32" as="geometry" />
        </mxCell>
        <mxCell id="zkfFHV4jXpPFQw0GAbJ--6" value="TutoringService" style="swimlane;fontStyle=0;align=center;verticalAlign=top;childLayout=stackLayout;horizontal=1;startSize=26;horizontalStack=0;resizeParent=1;resizeLast=0;collapsible=1;marginBottom=0;rounded=0;shadow=0;strokeWidth=1;" parent="WIyWlLk6GJQsqaUBKTNV-1" vertex="1">
          <mxGeometry x="10" y="744" width="160" height="182" as="geometry">
            <mxRectangle x="130" y="380" width="160" height="26" as="alternateBounds" />
          </mxGeometry>
        </mxCell>
        <mxCell id="zkfFHV4jXpPFQw0GAbJ--7" value="-id: Long" style="text;align=left;verticalAlign=top;spacingLeft=4;spacingRight=4;overflow=hidden;rotatable=0;points=[[0,0.5],[1,0.5]];portConstraint=eastwest;" parent="zkfFHV4jXpPFQw0GAbJ--6" vertex="1">
          <mxGeometry y="26" width="160" height="26" as="geometry" />
        </mxCell>
        <mxCell id="zkfFHV4jXpPFQw0GAbJ--8" value="-subject: String" style="text;align=left;verticalAlign=top;spacingLeft=4;spacingRight=4;overflow=hidden;rotatable=0;points=[[0,0.5],[1,0.5]];portConstraint=eastwest;rounded=0;shadow=0;html=0;" parent="zkfFHV4jXpPFQw0GAbJ--6" vertex="1">
          <mxGeometry y="52" width="160" height="26" as="geometry" />
        </mxCell>
        <mxCell id="zlm5GG81audVKw1eRPGY-129" value="-startDate: LocalDate" style="text;align=left;verticalAlign=top;spacingLeft=4;spacingRight=4;overflow=hidden;rotatable=0;points=[[0,0.5],[1,0.5]];portConstraint=eastwest;rounded=0;shadow=0;html=0;" vertex="1" parent="zkfFHV4jXpPFQw0GAbJ--6">
          <mxGeometry y="78" width="160" height="26" as="geometry" />
        </mxCell>
        <mxCell id="zlm5GG81audVKw1eRPGY-130" value="-endDate: LocalDate" style="text;align=left;verticalAlign=top;spacingLeft=4;spacingRight=4;overflow=hidden;rotatable=0;points=[[0,0.5],[1,0.5]];portConstraint=eastwest;rounded=0;shadow=0;html=0;" vertex="1" parent="zkfFHV4jXpPFQw0GAbJ--6">
          <mxGeometry y="104" width="160" height="26" as="geometry" />
        </mxCell>
        <mxCell id="zlm5GG81audVKw1eRPGY-131" value="-hoursPerSession: Integer" style="text;align=left;verticalAlign=top;spacingLeft=4;spacingRight=4;overflow=hidden;rotatable=0;points=[[0,0.5],[1,0.5]];portConstraint=eastwest;rounded=0;shadow=0;html=0;" vertex="1" parent="zkfFHV4jXpPFQw0GAbJ--6">
          <mxGeometry y="130" width="160" height="26" as="geometry" />
        </mxCell>
        <mxCell id="zlm5GG81audVKw1eRPGY-132" value="-tutoringType: TutoringType" style="text;align=left;verticalAlign=top;spacingLeft=4;spacingRight=4;overflow=hidden;rotatable=0;points=[[0,0.5],[1,0.5]];portConstraint=eastwest;rounded=0;shadow=0;html=0;" vertex="1" parent="zkfFHV4jXpPFQw0GAbJ--6">
          <mxGeometry y="156" width="160" height="26" as="geometry" />
        </mxCell>
        <mxCell id="zkfFHV4jXpPFQw0GAbJ--12" value="" style="endArrow=block;endSize=9;endFill=0;shadow=0;strokeWidth=1;rounded=0;curved=0;edgeStyle=elbowEdgeStyle;elbow=vertical;entryX=0.501;entryY=1.039;entryDx=0;entryDy=0;entryPerimeter=0;exitX=0.438;exitY=0.001;exitDx=0;exitDy=0;exitPerimeter=0;" parent="WIyWlLk6GJQsqaUBKTNV-1" source="zkfFHV4jXpPFQw0GAbJ--6" target="zlm5GG81audVKw1eRPGY-114" edge="1">
          <mxGeometry width="160" relative="1" as="geometry">
            <mxPoint x="180" y="744" as="sourcePoint" />
            <mxPoint x="290" y="570.0000000000001" as="targetPoint" />
            <Array as="points">
              <mxPoint x="290" y="660" />
            </Array>
          </mxGeometry>
        </mxCell>
        <mxCell id="zkfFHV4jXpPFQw0GAbJ--13" value="TeachingMaterial" style="swimlane;fontStyle=0;align=center;verticalAlign=top;childLayout=stackLayout;horizontal=1;startSize=26;horizontalStack=0;resizeParent=1;resizeLast=0;collapsible=1;marginBottom=0;rounded=0;shadow=0;strokeWidth=1;" parent="WIyWlLk6GJQsqaUBKTNV-1" vertex="1">
          <mxGeometry x="220" y="744" width="160" height="130" as="geometry">
            <mxRectangle x="340" y="380" width="170" height="26" as="alternateBounds" />
          </mxGeometry>
        </mxCell>
        <mxCell id="zkfFHV4jXpPFQw0GAbJ--14" value="-id: Long" style="text;align=left;verticalAlign=top;spacingLeft=4;spacingRight=4;overflow=hidden;rotatable=0;points=[[0,0.5],[1,0.5]];portConstraint=eastwest;" parent="zkfFHV4jXpPFQw0GAbJ--13" vertex="1">
          <mxGeometry y="26" width="160" height="26" as="geometry" />
        </mxCell>
        <mxCell id="zlm5GG81audVKw1eRPGY-134" value="-name: String" style="text;align=left;verticalAlign=top;spacingLeft=4;spacingRight=4;overflow=hidden;rotatable=0;points=[[0,0.5],[1,0.5]];portConstraint=eastwest;" vertex="1" parent="zkfFHV4jXpPFQw0GAbJ--13">
          <mxGeometry y="52" width="160" height="26" as="geometry" />
        </mxCell>
        <mxCell id="zlm5GG81audVKw1eRPGY-135" value="-author: String" style="text;align=left;verticalAlign=top;spacingLeft=4;spacingRight=4;overflow=hidden;rotatable=0;points=[[0,0.5],[1,0.5]];portConstraint=eastwest;" vertex="1" parent="zkfFHV4jXpPFQw0GAbJ--13">
          <mxGeometry y="78" width="160" height="26" as="geometry" />
        </mxCell>
        <mxCell id="zlm5GG81audVKw1eRPGY-136" value="-edition: Integer" style="text;align=left;verticalAlign=top;spacingLeft=4;spacingRight=4;overflow=hidden;rotatable=0;points=[[0,0.5],[1,0.5]];portConstraint=eastwest;" vertex="1" parent="zkfFHV4jXpPFQw0GAbJ--13">
          <mxGeometry y="104" width="160" height="26" as="geometry" />
        </mxCell>
        <mxCell id="zkfFHV4jXpPFQw0GAbJ--16" value="" style="endArrow=block;endSize=10;endFill=0;shadow=0;strokeWidth=1;rounded=0;curved=0;edgeStyle=elbowEdgeStyle;elbow=vertical;exitX=0.468;exitY=-0.004;exitDx=0;exitDy=0;exitPerimeter=0;" parent="WIyWlLk6GJQsqaUBKTNV-1" source="zkfFHV4jXpPFQw0GAbJ--13" edge="1">
          <mxGeometry width="160" relative="1" as="geometry">
            <mxPoint x="295" y="740" as="sourcePoint" />
            <mxPoint x="295" y="570" as="targetPoint" />
            <Array as="points">
              <mxPoint x="320" y="660" />
              <mxPoint x="334" y="636" />
            </Array>
          </mxGeometry>
        </mxCell>
        <mxCell id="zlm5GG81audVKw1eRPGY-0" value="User" style="swimlane;fontStyle=0;align=center;verticalAlign=top;childLayout=stackLayout;horizontal=1;startSize=26;horizontalStack=0;resizeParent=1;resizeLast=0;collapsible=1;marginBottom=0;rounded=0;shadow=0;strokeWidth=1;" vertex="1" parent="WIyWlLk6GJQsqaUBKTNV-1">
          <mxGeometry x="-510" y="330" width="160" height="260" as="geometry">
            <mxRectangle x="550" y="140" width="160" height="26" as="alternateBounds" />
          </mxGeometry>
        </mxCell>
        <mxCell id="zlm5GG81audVKw1eRPGY-1" value="-id: Long" style="text;align=left;verticalAlign=top;spacingLeft=4;spacingRight=4;overflow=hidden;rotatable=0;points=[[0,0.5],[1,0.5]];portConstraint=eastwest;" vertex="1" parent="zlm5GG81audVKw1eRPGY-0">
          <mxGeometry y="26" width="160" height="26" as="geometry" />
        </mxCell>
        <mxCell id="zlm5GG81audVKw1eRPGY-2" value="-firstName: String" style="text;align=left;verticalAlign=top;spacingLeft=4;spacingRight=4;overflow=hidden;rotatable=0;points=[[0,0.5],[1,0.5]];portConstraint=eastwest;rounded=0;shadow=0;html=0;" vertex="1" parent="zlm5GG81audVKw1eRPGY-0">
          <mxGeometry y="52" width="160" height="26" as="geometry" />
        </mxCell>
        <mxCell id="zlm5GG81audVKw1eRPGY-3" value="-lastName: String" style="text;align=left;verticalAlign=top;spacingLeft=4;spacingRight=4;overflow=hidden;rotatable=0;points=[[0,0.5],[1,0.5]];portConstraint=eastwest;rounded=0;shadow=0;html=0;" vertex="1" parent="zlm5GG81audVKw1eRPGY-0">
          <mxGeometry y="78" width="160" height="26" as="geometry" />
        </mxCell>
        <mxCell id="zlm5GG81audVKw1eRPGY-4" value="-email: String" style="text;align=left;verticalAlign=top;spacingLeft=4;spacingRight=4;overflow=hidden;rotatable=0;points=[[0,0.5],[1,0.5]];portConstraint=eastwest;rounded=0;shadow=0;html=0;" vertex="1" parent="zlm5GG81audVKw1eRPGY-0">
          <mxGeometry y="104" width="160" height="26" as="geometry" />
        </mxCell>
        <mxCell id="zlm5GG81audVKw1eRPGY-5" value="-password: String" style="text;align=left;verticalAlign=top;spacingLeft=4;spacingRight=4;overflow=hidden;rotatable=0;points=[[0,0.5],[1,0.5]];portConstraint=eastwest;rounded=0;shadow=0;html=0;" vertex="1" parent="zlm5GG81audVKw1eRPGY-0">
          <mxGeometry y="130" width="160" height="26" as="geometry" />
        </mxCell>
        <mxCell id="zlm5GG81audVKw1eRPGY-67" value="-points: Double" style="text;align=left;verticalAlign=top;spacingLeft=4;spacingRight=4;overflow=hidden;rotatable=0;points=[[0,0.5],[1,0.5]];portConstraint=eastwest;rounded=0;shadow=0;html=0;" vertex="1" parent="zlm5GG81audVKw1eRPGY-0">
          <mxGeometry y="156" width="160" height="26" as="geometry" />
        </mxCell>
        <mxCell id="zlm5GG81audVKw1eRPGY-70" value="-role: Role" style="text;align=left;verticalAlign=top;spacingLeft=4;spacingRight=4;overflow=hidden;rotatable=0;points=[[0,0.5],[1,0.5]];portConstraint=eastwest;rounded=0;shadow=0;html=0;" vertex="1" parent="zlm5GG81audVKw1eRPGY-0">
          <mxGeometry y="182" width="160" height="26" as="geometry" />
        </mxCell>
        <mxCell id="zlm5GG81audVKw1eRPGY-69" value="-enabled: Boolean" style="text;align=left;verticalAlign=top;spacingLeft=4;spacingRight=4;overflow=hidden;rotatable=0;points=[[0,0.5],[1,0.5]];portConstraint=eastwest;rounded=0;shadow=0;html=0;" vertex="1" parent="zlm5GG81audVKw1eRPGY-0">
          <mxGeometry y="208" width="160" height="26" as="geometry" />
        </mxCell>
        <mxCell id="zlm5GG81audVKw1eRPGY-68" value="-createdAt: LocalDateTime" style="text;align=left;verticalAlign=top;spacingLeft=4;spacingRight=4;overflow=hidden;rotatable=0;points=[[0,0.5],[1,0.5]];portConstraint=eastwest;rounded=0;shadow=0;html=0;" vertex="1" parent="zlm5GG81audVKw1eRPGY-0">
          <mxGeometry y="234" width="160" height="26" as="geometry" />
        </mxCell>
        <mxCell id="zlm5GG81audVKw1eRPGY-11" value="Project" style="swimlane;fontStyle=0;align=center;verticalAlign=top;childLayout=stackLayout;horizontal=1;startSize=26;horizontalStack=0;resizeParent=1;resizeLast=0;collapsible=1;marginBottom=0;rounded=0;shadow=0;strokeWidth=1;" vertex="1" parent="WIyWlLk6GJQsqaUBKTNV-1">
          <mxGeometry x="440" y="744" width="160" height="130" as="geometry">
            <mxRectangle x="340" y="380" width="170" height="26" as="alternateBounds" />
          </mxGeometry>
        </mxCell>
        <mxCell id="zlm5GG81audVKw1eRPGY-12" value="-id: Long" style="text;align=left;verticalAlign=top;spacingLeft=4;spacingRight=4;overflow=hidden;rotatable=0;points=[[0,0.5],[1,0.5]];portConstraint=eastwest;" vertex="1" parent="zlm5GG81audVKw1eRPGY-11">
          <mxGeometry y="26" width="160" height="26" as="geometry" />
        </mxCell>
        <mxCell id="zlm5GG81audVKw1eRPGY-138" value="-domain: String" style="text;align=left;verticalAlign=top;spacingLeft=4;spacingRight=4;overflow=hidden;rotatable=0;points=[[0,0.5],[1,0.5]];portConstraint=eastwest;" vertex="1" parent="zlm5GG81audVKw1eRPGY-11">
          <mxGeometry y="52" width="160" height="26" as="geometry" />
        </mxCell>
        <mxCell id="zlm5GG81audVKw1eRPGY-139" value="-teamSize: Integer" style="text;align=left;verticalAlign=top;spacingLeft=4;spacingRight=4;overflow=hidden;rotatable=0;points=[[0,0.5],[1,0.5]];portConstraint=eastwest;" vertex="1" parent="zlm5GG81audVKw1eRPGY-11">
          <mxGeometry y="78" width="160" height="26" as="geometry" />
        </mxCell>
        <mxCell id="zlm5GG81audVKw1eRPGY-140" value="-requiredSkills: List&lt;Skill&gt;" style="text;align=left;verticalAlign=top;spacingLeft=4;spacingRight=4;overflow=hidden;rotatable=0;points=[[0,0.5],[1,0.5]];portConstraint=eastwest;" vertex="1" parent="zlm5GG81audVKw1eRPGY-11">
          <mxGeometry y="104" width="160" height="26" as="geometry" />
        </mxCell>
        <mxCell id="zlm5GG81audVKw1eRPGY-19" value="FavoriteAnnouncement" style="swimlane;fontStyle=0;align=center;verticalAlign=top;childLayout=stackLayout;horizontal=1;startSize=26;horizontalStack=0;resizeParent=1;resizeLast=0;collapsible=1;marginBottom=0;rounded=0;shadow=0;strokeWidth=1;" vertex="1" parent="WIyWlLk6GJQsqaUBKTNV-1">
          <mxGeometry x="-130" y="146" width="190" height="110" as="geometry">
            <mxRectangle x="230" y="140" width="160" height="26" as="alternateBounds" />
          </mxGeometry>
        </mxCell>
        <mxCell id="zlm5GG81audVKw1eRPGY-20" value="-id: Long" style="text;align=left;verticalAlign=top;spacingLeft=4;spacingRight=4;overflow=hidden;rotatable=0;points=[[0,0.5],[1,0.5]];portConstraint=eastwest;" vertex="1" parent="zlm5GG81audVKw1eRPGY-19">
          <mxGeometry y="26" width="190" height="26" as="geometry" />
        </mxCell>
        <mxCell id="zlm5GG81audVKw1eRPGY-21" value="-user: User" style="text;align=left;verticalAlign=top;spacingLeft=4;spacingRight=4;overflow=hidden;rotatable=0;points=[[0,0.5],[1,0.5]];portConstraint=eastwest;rounded=0;shadow=0;html=0;" vertex="1" parent="zlm5GG81audVKw1eRPGY-19">
          <mxGeometry y="52" width="190" height="26" as="geometry" />
        </mxCell>
        <mxCell id="zlm5GG81audVKw1eRPGY-22" value="-announcement: Announcement" style="text;align=left;verticalAlign=top;spacingLeft=4;spacingRight=4;overflow=hidden;rotatable=0;points=[[0,0.5],[1,0.5]];portConstraint=eastwest;rounded=0;shadow=0;html=0;" vertex="1" parent="zlm5GG81audVKw1eRPGY-19">
          <mxGeometry y="78" width="190" height="26" as="geometry" />
        </mxCell>
        <mxCell id="zlm5GG81audVKw1eRPGY-25" value="Attachment" style="swimlane;fontStyle=0;align=center;verticalAlign=top;childLayout=stackLayout;horizontal=1;startSize=26;horizontalStack=0;resizeParent=1;resizeLast=0;collapsible=1;marginBottom=0;rounded=0;shadow=0;strokeWidth=1;" vertex="1" parent="WIyWlLk6GJQsqaUBKTNV-1">
          <mxGeometry x="200" y="990" width="200" height="182" as="geometry">
            <mxRectangle x="340" y="380" width="170" height="26" as="alternateBounds" />
          </mxGeometry>
        </mxCell>
        <mxCell id="zlm5GG81audVKw1eRPGY-141" value="-id: Long" style="text;align=left;verticalAlign=top;spacingLeft=4;spacingRight=4;overflow=hidden;rotatable=0;points=[[0,0.5],[1,0.5]];portConstraint=eastwest;" vertex="1" parent="zlm5GG81audVKw1eRPGY-25">
          <mxGeometry y="26" width="200" height="26" as="geometry" />
        </mxCell>
        <mxCell id="zlm5GG81audVKw1eRPGY-146" value="-teachingMaterial: TeachingMaterial" style="text;align=left;verticalAlign=top;spacingLeft=4;spacingRight=4;overflow=hidden;rotatable=0;points=[[0,0.5],[1,0.5]];portConstraint=eastwest;" vertex="1" parent="zlm5GG81audVKw1eRPGY-25">
          <mxGeometry y="52" width="200" height="26" as="geometry" />
        </mxCell>
        <mxCell id="zlm5GG81audVKw1eRPGY-145" value="-name: String" style="text;align=left;verticalAlign=top;spacingLeft=4;spacingRight=4;overflow=hidden;rotatable=0;points=[[0,0.5],[1,0.5]];portConstraint=eastwest;" vertex="1" parent="zlm5GG81audVKw1eRPGY-25">
          <mxGeometry y="78" width="200" height="26" as="geometry" />
        </mxCell>
        <mxCell id="zlm5GG81audVKw1eRPGY-144" value="-size: Long" style="text;align=left;verticalAlign=top;spacingLeft=4;spacingRight=4;overflow=hidden;rotatable=0;points=[[0,0.5],[1,0.5]];portConstraint=eastwest;" vertex="1" parent="zlm5GG81audVKw1eRPGY-25">
          <mxGeometry y="104" width="200" height="26" as="geometry" />
        </mxCell>
        <mxCell id="zlm5GG81audVKw1eRPGY-143" value="-deleted: Boolean" style="text;align=left;verticalAlign=top;spacingLeft=4;spacingRight=4;overflow=hidden;rotatable=0;points=[[0,0.5],[1,0.5]];portConstraint=eastwest;" vertex="1" parent="zlm5GG81audVKw1eRPGY-25">
          <mxGeometry y="130" width="200" height="26" as="geometry" />
        </mxCell>
        <mxCell id="zlm5GG81audVKw1eRPGY-147" value="-fileContent: byte[]" style="text;align=left;verticalAlign=top;spacingLeft=4;spacingRight=4;overflow=hidden;rotatable=0;points=[[0,0.5],[1,0.5]];portConstraint=eastwest;" vertex="1" parent="zlm5GG81audVKw1eRPGY-25">
          <mxGeometry y="156" width="200" height="26" as="geometry" />
        </mxCell>
        <mxCell id="zlm5GG81audVKw1eRPGY-28" value="Withdraw" style="swimlane;fontStyle=0;align=center;verticalAlign=top;childLayout=stackLayout;horizontal=1;startSize=26;horizontalStack=0;resizeParent=1;resizeLast=0;collapsible=1;marginBottom=0;rounded=0;shadow=0;strokeWidth=1;" vertex="1" parent="WIyWlLk6GJQsqaUBKTNV-1">
          <mxGeometry x="-880" y="700" width="160" height="130" as="geometry">
            <mxRectangle x="340" y="380" width="170" height="26" as="alternateBounds" />
          </mxGeometry>
        </mxCell>
        <mxCell id="zlm5GG81audVKw1eRPGY-29" value="-id: Long" style="text;align=left;verticalAlign=top;spacingLeft=4;spacingRight=4;overflow=hidden;rotatable=0;points=[[0,0.5],[1,0.5]];portConstraint=eastwest;" vertex="1" parent="zlm5GG81audVKw1eRPGY-28">
          <mxGeometry y="26" width="160" height="26" as="geometry" />
        </mxCell>
        <mxCell id="zlm5GG81audVKw1eRPGY-73" value="-user: User" style="text;align=left;verticalAlign=top;spacingLeft=4;spacingRight=4;overflow=hidden;rotatable=0;points=[[0,0.5],[1,0.5]];portConstraint=eastwest;" vertex="1" parent="zlm5GG81audVKw1eRPGY-28">
          <mxGeometry y="52" width="160" height="26" as="geometry" />
        </mxCell>
        <mxCell id="zlm5GG81audVKw1eRPGY-74" value="-points: Double" style="text;align=left;verticalAlign=top;spacingLeft=4;spacingRight=4;overflow=hidden;rotatable=0;points=[[0,0.5],[1,0.5]];portConstraint=eastwest;" vertex="1" parent="zlm5GG81audVKw1eRPGY-28">
          <mxGeometry y="78" width="160" height="26" as="geometry" />
        </mxCell>
        <mxCell id="zlm5GG81audVKw1eRPGY-75" value="-createdAt: LocalDateTime" style="text;align=left;verticalAlign=top;spacingLeft=4;spacingRight=4;overflow=hidden;rotatable=0;points=[[0,0.5],[1,0.5]];portConstraint=eastwest;" vertex="1" parent="zlm5GG81audVKw1eRPGY-28">
          <mxGeometry y="104" width="160" height="26" as="geometry" />
        </mxCell>
        <mxCell id="zlm5GG81audVKw1eRPGY-31" value="QRCode" style="swimlane;fontStyle=0;align=center;verticalAlign=top;childLayout=stackLayout;horizontal=1;startSize=26;horizontalStack=0;resizeParent=1;resizeLast=0;collapsible=1;marginBottom=0;rounded=0;shadow=0;strokeWidth=1;" vertex="1" parent="WIyWlLk6GJQsqaUBKTNV-1">
          <mxGeometry x="-670" y="700" width="160" height="104" as="geometry">
            <mxRectangle x="340" y="380" width="170" height="26" as="alternateBounds" />
          </mxGeometry>
        </mxCell>
        <mxCell id="zlm5GG81audVKw1eRPGY-32" value="-id: Long" style="text;align=left;verticalAlign=top;spacingLeft=4;spacingRight=4;overflow=hidden;rotatable=0;points=[[0,0.5],[1,0.5]];portConstraint=eastwest;" vertex="1" parent="zlm5GG81audVKw1eRPGY-31">
          <mxGeometry y="26" width="160" height="26" as="geometry" />
        </mxCell>
        <mxCell id="zlm5GG81audVKw1eRPGY-92" value="-user: User" style="text;align=left;verticalAlign=top;spacingLeft=4;spacingRight=4;overflow=hidden;rotatable=0;points=[[0,0.5],[1,0.5]];portConstraint=eastwest;" vertex="1" parent="zlm5GG81audVKw1eRPGY-31">
          <mxGeometry y="52" width="160" height="26" as="geometry" />
        </mxCell>
        <mxCell id="zlm5GG81audVKw1eRPGY-93" value="-qrCode: byte[]" style="text;align=left;verticalAlign=top;spacingLeft=4;spacingRight=4;overflow=hidden;rotatable=0;points=[[0,0.5],[1,0.5]];portConstraint=eastwest;" vertex="1" parent="zlm5GG81audVKw1eRPGY-31">
          <mxGeometry y="78" width="160" height="26" as="geometry" />
        </mxCell>
        <mxCell id="zlm5GG81audVKw1eRPGY-34" value="ProfilePicture" style="swimlane;fontStyle=0;align=center;verticalAlign=top;childLayout=stackLayout;horizontal=1;startSize=26;horizontalStack=0;resizeParent=1;resizeLast=0;collapsible=1;marginBottom=0;rounded=0;shadow=0;strokeWidth=1;" vertex="1" parent="WIyWlLk6GJQsqaUBKTNV-1">
          <mxGeometry x="-440" y="700" width="160" height="182" as="geometry">
            <mxRectangle x="340" y="380" width="170" height="26" as="alternateBounds" />
          </mxGeometry>
        </mxCell>
        <mxCell id="zlm5GG81audVKw1eRPGY-94" value="-id: Long" style="text;align=left;verticalAlign=top;spacingLeft=4;spacingRight=4;overflow=hidden;rotatable=0;points=[[0,0.5],[1,0.5]];portConstraint=eastwest;" vertex="1" parent="zlm5GG81audVKw1eRPGY-34">
          <mxGeometry y="26" width="160" height="26" as="geometry" />
        </mxCell>
        <mxCell id="zlm5GG81audVKw1eRPGY-95" value="-user: User" style="text;align=left;verticalAlign=top;spacingLeft=4;spacingRight=4;overflow=hidden;rotatable=0;points=[[0,0.5],[1,0.5]];portConstraint=eastwest;" vertex="1" parent="zlm5GG81audVKw1eRPGY-34">
          <mxGeometry y="52" width="160" height="26" as="geometry" />
        </mxCell>
        <mxCell id="zlm5GG81audVKw1eRPGY-97" value="-name: String" style="text;align=left;verticalAlign=top;spacingLeft=4;spacingRight=4;overflow=hidden;rotatable=0;points=[[0,0.5],[1,0.5]];portConstraint=eastwest;" vertex="1" parent="zlm5GG81audVKw1eRPGY-34">
          <mxGeometry y="78" width="160" height="26" as="geometry" />
        </mxCell>
        <mxCell id="zlm5GG81audVKw1eRPGY-98" value="-size: Long" style="text;align=left;verticalAlign=top;spacingLeft=4;spacingRight=4;overflow=hidden;rotatable=0;points=[[0,0.5],[1,0.5]];portConstraint=eastwest;" vertex="1" parent="zlm5GG81audVKw1eRPGY-34">
          <mxGeometry y="104" width="160" height="26" as="geometry" />
        </mxCell>
        <mxCell id="zlm5GG81audVKw1eRPGY-99" value="-deleted: Boolean" style="text;align=left;verticalAlign=top;spacingLeft=4;spacingRight=4;overflow=hidden;rotatable=0;points=[[0,0.5],[1,0.5]];portConstraint=eastwest;" vertex="1" parent="zlm5GG81audVKw1eRPGY-34">
          <mxGeometry y="130" width="160" height="26" as="geometry" />
        </mxCell>
        <mxCell id="zlm5GG81audVKw1eRPGY-100" value="-fileContent: byte[]" style="text;align=left;verticalAlign=top;spacingLeft=4;spacingRight=4;overflow=hidden;rotatable=0;points=[[0,0.5],[1,0.5]];portConstraint=eastwest;" vertex="1" parent="zlm5GG81audVKw1eRPGY-34">
          <mxGeometry y="156" width="160" height="26" as="geometry" />
        </mxCell>
        <mxCell id="zlm5GG81audVKw1eRPGY-37" value="&lt;&lt;enum&gt;&gt;&#xa;Role" style="swimlane;fontStyle=0;align=center;verticalAlign=top;childLayout=stackLayout;horizontal=1;startSize=38;horizontalStack=0;resizeParent=1;resizeLast=0;collapsible=1;marginBottom=0;rounded=0;shadow=0;strokeWidth=1;" vertex="1" parent="WIyWlLk6GJQsqaUBKTNV-1">
          <mxGeometry x="-250" y="512" width="160" height="100" as="geometry">
            <mxRectangle x="-250" y="512" width="170" height="26" as="alternateBounds" />
          </mxGeometry>
        </mxCell>
        <mxCell id="zlm5GG81audVKw1eRPGY-89" value="USER" style="text;align=left;verticalAlign=top;spacingLeft=4;spacingRight=4;overflow=hidden;rotatable=0;points=[[0,0.5],[1,0.5]];portConstraint=eastwest;" vertex="1" parent="zlm5GG81audVKw1eRPGY-37">
          <mxGeometry y="38" width="160" height="32" as="geometry" />
        </mxCell>
        <mxCell id="zlm5GG81audVKw1eRPGY-90" value="ADMIN" style="text;align=left;verticalAlign=top;spacingLeft=4;spacingRight=4;overflow=hidden;rotatable=0;points=[[0,0.5],[1,0.5]];portConstraint=eastwest;" vertex="1" parent="zlm5GG81audVKw1eRPGY-37">
          <mxGeometry y="70" width="160" height="30" as="geometry" />
        </mxCell>
        <mxCell id="zlm5GG81audVKw1eRPGY-40" value="ConfirmationToken" style="swimlane;fontStyle=0;align=center;verticalAlign=top;childLayout=stackLayout;horizontal=1;startSize=26;horizontalStack=0;resizeParent=1;resizeLast=0;collapsible=1;marginBottom=0;rounded=0;shadow=0;strokeWidth=1;" vertex="1" parent="WIyWlLk6GJQsqaUBKTNV-1">
          <mxGeometry x="-930" y="150" width="170" height="182" as="geometry">
            <mxRectangle x="340" y="380" width="170" height="26" as="alternateBounds" />
          </mxGeometry>
        </mxCell>
        <mxCell id="zlm5GG81audVKw1eRPGY-41" value="-id: Long" style="text;align=left;verticalAlign=top;spacingLeft=4;spacingRight=4;overflow=hidden;rotatable=0;points=[[0,0.5],[1,0.5]];portConstraint=eastwest;" vertex="1" parent="zlm5GG81audVKw1eRPGY-40">
          <mxGeometry y="26" width="170" height="26" as="geometry" />
        </mxCell>
        <mxCell id="zlm5GG81audVKw1eRPGY-101" value="-user: User" style="text;align=left;verticalAlign=top;spacingLeft=4;spacingRight=4;overflow=hidden;rotatable=0;points=[[0,0.5],[1,0.5]];portConstraint=eastwest;" vertex="1" parent="zlm5GG81audVKw1eRPGY-40">
          <mxGeometry y="52" width="170" height="26" as="geometry" />
        </mxCell>
        <mxCell id="zlm5GG81audVKw1eRPGY-102" value="-token: String" style="text;align=left;verticalAlign=top;spacingLeft=4;spacingRight=4;overflow=hidden;rotatable=0;points=[[0,0.5],[1,0.5]];portConstraint=eastwest;" vertex="1" parent="zlm5GG81audVKw1eRPGY-40">
          <mxGeometry y="78" width="170" height="26" as="geometry" />
        </mxCell>
        <mxCell id="zlm5GG81audVKw1eRPGY-103" value="-createdAt: LocalDateTime" style="text;align=left;verticalAlign=top;spacingLeft=4;spacingRight=4;overflow=hidden;rotatable=0;points=[[0,0.5],[1,0.5]];portConstraint=eastwest;" vertex="1" parent="zlm5GG81audVKw1eRPGY-40">
          <mxGeometry y="104" width="170" height="26" as="geometry" />
        </mxCell>
        <mxCell id="zlm5GG81audVKw1eRPGY-104" value="-expiresAt: LocalDateTime" style="text;align=left;verticalAlign=top;spacingLeft=4;spacingRight=4;overflow=hidden;rotatable=0;points=[[0,0.5],[1,0.5]];portConstraint=eastwest;" vertex="1" parent="zlm5GG81audVKw1eRPGY-40">
          <mxGeometry y="130" width="170" height="26" as="geometry" />
        </mxCell>
        <mxCell id="zlm5GG81audVKw1eRPGY-105" value="-confirmedAt: LocalDateTime" style="text;align=left;verticalAlign=top;spacingLeft=4;spacingRight=4;overflow=hidden;rotatable=0;points=[[0,0.5],[1,0.5]];portConstraint=eastwest;" vertex="1" parent="zlm5GG81audVKw1eRPGY-40">
          <mxGeometry y="156" width="170" height="24" as="geometry" />
        </mxCell>
        <mxCell id="zlm5GG81audVKw1eRPGY-46" value="Skill" style="swimlane;fontStyle=0;align=center;verticalAlign=top;childLayout=stackLayout;horizontal=1;startSize=26;horizontalStack=0;resizeParent=1;resizeLast=0;collapsible=1;marginBottom=0;rounded=0;shadow=0;strokeWidth=1;" vertex="1" parent="WIyWlLk6GJQsqaUBKTNV-1">
          <mxGeometry x="760" y="795" width="160" height="208" as="geometry">
            <mxRectangle x="340" y="380" width="170" height="26" as="alternateBounds" />
          </mxGeometry>
        </mxCell>
        <mxCell id="zlm5GG81audVKw1eRPGY-47" value="-id: Long" style="text;align=left;verticalAlign=top;spacingLeft=4;spacingRight=4;overflow=hidden;rotatable=0;points=[[0,0.5],[1,0.5]];portConstraint=eastwest;" vertex="1" parent="zlm5GG81audVKw1eRPGY-46">
          <mxGeometry y="26" width="160" height="24" as="geometry" />
        </mxCell>
        <mxCell id="zlm5GG81audVKw1eRPGY-152" value="-project: Project" style="text;align=left;verticalAlign=top;spacingLeft=4;spacingRight=4;overflow=hidden;rotatable=0;points=[[0,0.5],[1,0.5]];portConstraint=eastwest;" vertex="1" parent="zlm5GG81audVKw1eRPGY-46">
          <mxGeometry y="50" width="160" height="26" as="geometry" />
        </mxCell>
        <mxCell id="zlm5GG81audVKw1eRPGY-153" value="-skill: String" style="text;align=left;verticalAlign=top;spacingLeft=4;spacingRight=4;overflow=hidden;rotatable=0;points=[[0,0.5],[1,0.5]];portConstraint=eastwest;" vertex="1" parent="zlm5GG81audVKw1eRPGY-46">
          <mxGeometry y="76" width="160" height="26" as="geometry" />
        </mxCell>
        <mxCell id="zlm5GG81audVKw1eRPGY-154" value="-description: String" style="text;align=left;verticalAlign=top;spacingLeft=4;spacingRight=4;overflow=hidden;rotatable=0;points=[[0,0.5],[1,0.5]];portConstraint=eastwest;" vertex="1" parent="zlm5GG81audVKw1eRPGY-46">
          <mxGeometry y="102" width="160" height="26" as="geometry" />
        </mxCell>
        <mxCell id="zlm5GG81audVKw1eRPGY-155" value="-skillPoints: Double" style="text;align=left;verticalAlign=top;spacingLeft=4;spacingRight=4;overflow=hidden;rotatable=0;points=[[0,0.5],[1,0.5]];portConstraint=eastwest;" vertex="1" parent="zlm5GG81audVKw1eRPGY-46">
          <mxGeometry y="128" width="160" height="26" as="geometry" />
        </mxCell>
        <mxCell id="zlm5GG81audVKw1eRPGY-156" value="-status: SkillStatus" style="text;align=left;verticalAlign=top;spacingLeft=4;spacingRight=4;overflow=hidden;rotatable=0;points=[[0,0.5],[1,0.5]];portConstraint=eastwest;" vertex="1" parent="zlm5GG81audVKw1eRPGY-46">
          <mxGeometry y="154" width="160" height="26" as="geometry" />
        </mxCell>
        <mxCell id="zlm5GG81audVKw1eRPGY-157" value="-deleted: Boolean" style="text;align=left;verticalAlign=top;spacingLeft=4;spacingRight=4;overflow=hidden;rotatable=0;points=[[0,0.5],[1,0.5]];portConstraint=eastwest;" vertex="1" parent="zlm5GG81audVKw1eRPGY-46">
          <mxGeometry y="180" width="160" height="26" as="geometry" />
        </mxCell>
        <mxCell id="zlm5GG81audVKw1eRPGY-49" value="ChatRoom" style="swimlane;fontStyle=0;align=center;verticalAlign=top;childLayout=stackLayout;horizontal=1;startSize=26;horizontalStack=0;resizeParent=1;resizeLast=0;collapsible=1;marginBottom=0;rounded=0;shadow=0;strokeWidth=1;" vertex="1" parent="WIyWlLk6GJQsqaUBKTNV-1">
          <mxGeometry x="-650" y="77" width="160" height="130" as="geometry">
            <mxRectangle x="340" y="380" width="170" height="26" as="alternateBounds" />
          </mxGeometry>
        </mxCell>
        <mxCell id="zlm5GG81audVKw1eRPGY-50" value="-id: Long" style="text;align=left;verticalAlign=top;spacingLeft=4;spacingRight=4;overflow=hidden;rotatable=0;points=[[0,0.5],[1,0.5]];portConstraint=eastwest;" vertex="1" parent="zlm5GG81audVKw1eRPGY-49">
          <mxGeometry y="26" width="160" height="26" as="geometry" />
        </mxCell>
        <mxCell id="zlm5GG81audVKw1eRPGY-159" value="-chatId: String" style="text;align=left;verticalAlign=top;spacingLeft=4;spacingRight=4;overflow=hidden;rotatable=0;points=[[0,0.5],[1,0.5]];portConstraint=eastwest;" vertex="1" parent="zlm5GG81audVKw1eRPGY-49">
          <mxGeometry y="52" width="160" height="26" as="geometry" />
        </mxCell>
        <mxCell id="zlm5GG81audVKw1eRPGY-160" value="-sender: User" style="text;align=left;verticalAlign=top;spacingLeft=4;spacingRight=4;overflow=hidden;rotatable=0;points=[[0,0.5],[1,0.5]];portConstraint=eastwest;" vertex="1" parent="zlm5GG81audVKw1eRPGY-49">
          <mxGeometry y="78" width="160" height="26" as="geometry" />
        </mxCell>
        <mxCell id="zlm5GG81audVKw1eRPGY-161" value="-recipient: User" style="text;align=left;verticalAlign=top;spacingLeft=4;spacingRight=4;overflow=hidden;rotatable=0;points=[[0,0.5],[1,0.5]];portConstraint=eastwest;" vertex="1" parent="zlm5GG81audVKw1eRPGY-49">
          <mxGeometry y="104" width="160" height="26" as="geometry" />
        </mxCell>
        <mxCell id="zlm5GG81audVKw1eRPGY-52" value="ChatMessage" style="swimlane;fontStyle=0;align=center;verticalAlign=top;childLayout=stackLayout;horizontal=1;startSize=26;horizontalStack=0;resizeParent=1;resizeLast=0;collapsible=1;marginBottom=0;rounded=0;shadow=0;strokeWidth=1;" vertex="1" parent="WIyWlLk6GJQsqaUBKTNV-1">
          <mxGeometry x="-360" y="80" width="160" height="130" as="geometry">
            <mxRectangle x="340" y="380" width="170" height="26" as="alternateBounds" />
          </mxGeometry>
        </mxCell>
        <mxCell id="zlm5GG81audVKw1eRPGY-162" value="-id: Long" style="text;align=left;verticalAlign=top;spacingLeft=4;spacingRight=4;overflow=hidden;rotatable=0;points=[[0,0.5],[1,0.5]];portConstraint=eastwest;" vertex="1" parent="zlm5GG81audVKw1eRPGY-52">
          <mxGeometry y="26" width="160" height="26" as="geometry" />
        </mxCell>
        <mxCell id="zlm5GG81audVKw1eRPGY-165" value="-chatId: String" style="text;align=left;verticalAlign=top;spacingLeft=4;spacingRight=4;overflow=hidden;rotatable=0;points=[[0,0.5],[1,0.5]];portConstraint=eastwest;" vertex="1" parent="zlm5GG81audVKw1eRPGY-52">
          <mxGeometry y="52" width="160" height="26" as="geometry" />
        </mxCell>
        <mxCell id="zlm5GG81audVKw1eRPGY-164" value="-sender: User" style="text;align=left;verticalAlign=top;spacingLeft=4;spacingRight=4;overflow=hidden;rotatable=0;points=[[0,0.5],[1,0.5]];portConstraint=eastwest;" vertex="1" parent="zlm5GG81audVKw1eRPGY-52">
          <mxGeometry y="78" width="160" height="26" as="geometry" />
        </mxCell>
        <mxCell id="zlm5GG81audVKw1eRPGY-163" value="-recipient: User " style="text;align=left;verticalAlign=top;spacingLeft=4;spacingRight=4;overflow=hidden;rotatable=0;points=[[0,0.5],[1,0.5]];portConstraint=eastwest;" vertex="1" parent="zlm5GG81audVKw1eRPGY-52">
          <mxGeometry y="104" width="160" height="26" as="geometry" />
        </mxCell>
        <mxCell id="zlm5GG81audVKw1eRPGY-55" value="Transaction" style="swimlane;fontStyle=0;align=center;verticalAlign=top;childLayout=stackLayout;horizontal=1;startSize=26;horizontalStack=0;resizeParent=1;resizeLast=0;collapsible=1;marginBottom=0;rounded=0;shadow=0;strokeWidth=1;" vertex="1" parent="WIyWlLk6GJQsqaUBKTNV-1">
          <mxGeometry x="-380" y="1097" width="190" height="234" as="geometry">
            <mxRectangle x="340" y="380" width="170" height="26" as="alternateBounds" />
          </mxGeometry>
        </mxCell>
        <mxCell id="zlm5GG81audVKw1eRPGY-184" value="-id: Long" style="text;align=left;verticalAlign=top;spacingLeft=4;spacingRight=4;overflow=hidden;rotatable=0;points=[[0,0.5],[1,0.5]];portConstraint=eastwest;" vertex="1" parent="zlm5GG81audVKw1eRPGY-55">
          <mxGeometry y="26" width="190" height="26" as="geometry" />
        </mxCell>
        <mxCell id="zlm5GG81audVKw1eRPGY-186" value="-user: User" style="text;align=left;verticalAlign=top;spacingLeft=4;spacingRight=4;overflow=hidden;rotatable=0;points=[[0,0.5],[1,0.5]];portConstraint=eastwest;" vertex="1" parent="zlm5GG81audVKw1eRPGY-55">
          <mxGeometry y="52" width="190" height="26" as="geometry" />
        </mxCell>
        <mxCell id="zlm5GG81audVKw1eRPGY-187" value="-secondUser: User" style="text;align=left;verticalAlign=top;spacingLeft=4;spacingRight=4;overflow=hidden;rotatable=0;points=[[0,0.5],[1,0.5]];portConstraint=eastwest;" vertex="1" parent="zlm5GG81audVKw1eRPGY-55">
          <mxGeometry y="78" width="190" height="26" as="geometry" />
        </mxCell>
        <mxCell id="zlm5GG81audVKw1eRPGY-188" value="-announcement: Announcement" style="text;align=left;verticalAlign=top;spacingLeft=4;spacingRight=4;overflow=hidden;rotatable=0;points=[[0,0.5],[1,0.5]];portConstraint=eastwest;" vertex="1" parent="zlm5GG81audVKw1eRPGY-55">
          <mxGeometry y="104" width="190" height="26" as="geometry" />
        </mxCell>
        <mxCell id="zlm5GG81audVKw1eRPGY-189" value="-skill: Skill" style="text;align=left;verticalAlign=top;spacingLeft=4;spacingRight=4;overflow=hidden;rotatable=0;points=[[0,0.5],[1,0.5]];portConstraint=eastwest;" vertex="1" parent="zlm5GG81audVKw1eRPGY-55">
          <mxGeometry y="130" width="190" height="26" as="geometry" />
        </mxCell>
        <mxCell id="zlm5GG81audVKw1eRPGY-190" value="-type: TransactionType" style="text;align=left;verticalAlign=top;spacingLeft=4;spacingRight=4;overflow=hidden;rotatable=0;points=[[0,0.5],[1,0.5]];portConstraint=eastwest;" vertex="1" parent="zlm5GG81audVKw1eRPGY-55">
          <mxGeometry y="156" width="190" height="26" as="geometry" />
        </mxCell>
        <mxCell id="zlm5GG81audVKw1eRPGY-191" value="-amount: Double" style="text;align=left;verticalAlign=top;spacingLeft=4;spacingRight=4;overflow=hidden;rotatable=0;points=[[0,0.5],[1,0.5]];portConstraint=eastwest;" vertex="1" parent="zlm5GG81audVKw1eRPGY-55">
          <mxGeometry y="182" width="190" height="26" as="geometry" />
        </mxCell>
        <mxCell id="zlm5GG81audVKw1eRPGY-192" value="-createdAt: LocalDateTime" style="text;align=left;verticalAlign=top;spacingLeft=4;spacingRight=4;overflow=hidden;rotatable=0;points=[[0,0.5],[1,0.5]];portConstraint=eastwest;" vertex="1" parent="zlm5GG81audVKw1eRPGY-55">
          <mxGeometry y="208" width="190" height="26" as="geometry" />
        </mxCell>
        <mxCell id="zlm5GG81audVKw1eRPGY-76" value="" style="endArrow=open;html=1;endSize=12;startArrow=diamondThin;startSize=14;startFill=1;edgeStyle=orthogonalEdgeStyle;align=left;verticalAlign=bottom;rounded=0;entryX=0.5;entryY=0;entryDx=0;entryDy=0;" edge="1" parent="WIyWlLk6GJQsqaUBKTNV-1" target="zlm5GG81audVKw1eRPGY-28">
          <mxGeometry x="-1" y="3" relative="1" as="geometry">
            <mxPoint x="-510" y="430" as="sourcePoint" />
            <mxPoint x="-590" y="430" as="targetPoint" />
            <Array as="points">
              <mxPoint x="-800" y="430" />
            </Array>
          </mxGeometry>
        </mxCell>
        <mxCell id="zlm5GG81audVKw1eRPGY-78" value="&lt;span style=&quot;font-weight: normal;&quot;&gt;1&lt;/span&gt;" style="text;align=center;fontStyle=1;verticalAlign=middle;spacingLeft=3;spacingRight=3;strokeColor=none;rotatable=0;points=[[0,0.5],[1,0.5]];portConstraint=eastwest;html=1;" vertex="1" parent="WIyWlLk6GJQsqaUBKTNV-1">
          <mxGeometry x="-550" y="410" width="20" height="16" as="geometry" />
        </mxCell>
        <mxCell id="zlm5GG81audVKw1eRPGY-79" value="0...*" style="text;align=center;fontStyle=0;verticalAlign=middle;spacingLeft=3;spacingRight=3;strokeColor=none;rotatable=0;points=[[0,0.5],[1,0.5]];portConstraint=eastwest;html=1;" vertex="1" parent="WIyWlLk6GJQsqaUBKTNV-1">
          <mxGeometry x="-840" y="665" width="20" height="16" as="geometry" />
        </mxCell>
        <mxCell id="zlm5GG81audVKw1eRPGY-80" value="" style="endArrow=open;html=1;endSize=12;startArrow=diamondThin;startSize=14;startFill=1;edgeStyle=orthogonalEdgeStyle;align=left;verticalAlign=bottom;rounded=0;entryX=0.5;entryY=0;entryDx=0;entryDy=0;" edge="1" parent="WIyWlLk6GJQsqaUBKTNV-1" target="zlm5GG81audVKw1eRPGY-31">
          <mxGeometry x="-1" y="3" relative="1" as="geometry">
            <mxPoint x="-510" y="470" as="sourcePoint" />
            <mxPoint x="-780" y="678" as="targetPoint" />
            <Array as="points">
              <mxPoint x="-590" y="470" />
            </Array>
          </mxGeometry>
        </mxCell>
        <mxCell id="zlm5GG81audVKw1eRPGY-81" value="&lt;span style=&quot;font-weight: normal;&quot;&gt;1&lt;/span&gt;" style="text;align=center;fontStyle=1;verticalAlign=middle;spacingLeft=3;spacingRight=3;strokeColor=none;rotatable=0;points=[[0,0.5],[1,0.5]];portConstraint=eastwest;html=1;" vertex="1" parent="WIyWlLk6GJQsqaUBKTNV-1">
          <mxGeometry x="-550" y="452" width="20" height="16" as="geometry" />
        </mxCell>
        <mxCell id="zlm5GG81audVKw1eRPGY-82" value="1" style="text;align=center;fontStyle=0;verticalAlign=middle;spacingLeft=3;spacingRight=3;strokeColor=none;rotatable=0;points=[[0,0.5],[1,0.5]];portConstraint=eastwest;html=1;" vertex="1" parent="WIyWlLk6GJQsqaUBKTNV-1">
          <mxGeometry x="-620" y="665" width="20" height="16" as="geometry" />
        </mxCell>
        <mxCell id="zlm5GG81audVKw1eRPGY-83" value="" style="endArrow=open;html=1;endSize=12;startArrow=diamondThin;startSize=14;startFill=1;edgeStyle=orthogonalEdgeStyle;align=left;verticalAlign=bottom;rounded=0;entryX=0.398;entryY=0.014;entryDx=0;entryDy=0;exitX=0.881;exitY=1.115;exitDx=0;exitDy=0;exitPerimeter=0;entryPerimeter=0;" edge="1" parent="WIyWlLk6GJQsqaUBKTNV-1" target="zlm5GG81audVKw1eRPGY-34">
          <mxGeometry x="-1" y="3" relative="1" as="geometry">
            <mxPoint x="-376.03999999999996" y="590" as="sourcePoint" />
            <mxPoint x="-637" y="993.01" as="targetPoint" />
            <Array as="points">
              <mxPoint x="-376" y="635" />
              <mxPoint x="-376" y="635" />
            </Array>
          </mxGeometry>
        </mxCell>
        <mxCell id="zlm5GG81audVKw1eRPGY-84" value="1" style="text;align=center;fontStyle=0;verticalAlign=middle;spacingLeft=3;spacingRight=3;strokeColor=none;rotatable=0;points=[[0,0.5],[1,0.5]];portConstraint=eastwest;html=1;" vertex="1" parent="WIyWlLk6GJQsqaUBKTNV-1">
          <mxGeometry x="-410" y="597" width="20" height="16" as="geometry" />
        </mxCell>
        <mxCell id="zlm5GG81audVKw1eRPGY-85" value="0...*" style="text;align=center;fontStyle=0;verticalAlign=middle;spacingLeft=3;spacingRight=3;strokeColor=none;rotatable=0;points=[[0,0.5],[1,0.5]];portConstraint=eastwest;html=1;" vertex="1" parent="WIyWlLk6GJQsqaUBKTNV-1">
          <mxGeometry x="-410" y="665" width="20" height="16" as="geometry" />
        </mxCell>
        <mxCell id="zlm5GG81audVKw1eRPGY-86" value="1" style="endArrow=open;html=1;endSize=12;startArrow=diamondThin;startSize=14;startFill=1;edgeStyle=orthogonalEdgeStyle;align=left;verticalAlign=bottom;rounded=0;entryX=0;entryY=0.5;entryDx=0;entryDy=0;exitX=1.021;exitY=0.055;exitDx=0;exitDy=0;exitPerimeter=0;" edge="1" parent="WIyWlLk6GJQsqaUBKTNV-1">
          <mxGeometry x="-0.9422" y="2" relative="1" as="geometry">
            <mxPoint x="-349.9999999999999" y="342.30000000000007" as="sourcePoint" />
            <mxPoint x="-133.36" y="213" as="targetPoint" />
            <Array as="points">
              <mxPoint x="-170" y="342" />
              <mxPoint x="-170" y="213" />
            </Array>
            <mxPoint as="offset" />
          </mxGeometry>
        </mxCell>
        <mxCell id="zlm5GG81audVKw1eRPGY-88" style="edgeStyle=orthogonalEdgeStyle;rounded=0;orthogonalLoop=1;jettySize=auto;html=1;exitX=1;exitY=0.5;exitDx=0;exitDy=0;" edge="1" parent="WIyWlLk6GJQsqaUBKTNV-1" source="zlm5GG81audVKw1eRPGY-70" target="zlm5GG81audVKw1eRPGY-37">
          <mxGeometry relative="1" as="geometry">
            <Array as="points">
              <mxPoint x="-270" y="525" />
              <mxPoint x="-270" y="525" />
            </Array>
          </mxGeometry>
        </mxCell>
        <mxCell id="zlm5GG81audVKw1eRPGY-107" value="0...*" style="text;align=center;fontStyle=0;verticalAlign=middle;spacingLeft=3;spacingRight=3;strokeColor=none;rotatable=0;points=[[0,0.5],[1,0.5]];portConstraint=eastwest;html=1;" vertex="1" parent="WIyWlLk6GJQsqaUBKTNV-1">
          <mxGeometry x="-170" y="197" width="20" height="16" as="geometry" />
        </mxCell>
        <mxCell id="zlm5GG81audVKw1eRPGY-108" value="1" style="endArrow=open;html=1;endSize=12;startArrow=diamondThin;startSize=14;startFill=1;edgeStyle=orthogonalEdgeStyle;align=left;verticalAlign=bottom;rounded=0;exitX=0.5;exitY=0;exitDx=0;exitDy=0;" edge="1" parent="WIyWlLk6GJQsqaUBKTNV-1" source="zkfFHV4jXpPFQw0GAbJ--0">
          <mxGeometry x="-0.9396" y="20" relative="1" as="geometry">
            <mxPoint x="-120" y="360" as="sourcePoint" />
            <mxPoint x="60" y="240" as="targetPoint" />
            <Array as="points">
              <mxPoint x="295" y="240" />
            </Array>
            <mxPoint as="offset" />
          </mxGeometry>
        </mxCell>
        <mxCell id="zlm5GG81audVKw1eRPGY-109" value="0...*" style="text;align=center;fontStyle=0;verticalAlign=middle;spacingLeft=3;spacingRight=3;strokeColor=none;rotatable=0;points=[[0,0.5],[1,0.5]];portConstraint=eastwest;html=1;" vertex="1" parent="WIyWlLk6GJQsqaUBKTNV-1">
          <mxGeometry x="80" y="218" width="20" height="16" as="geometry" />
        </mxCell>
        <mxCell id="zlm5GG81audVKw1eRPGY-116" value="" style="endArrow=block;endSize=9;endFill=0;html=1;rounded=0;entryX=0.5;entryY=1.032;entryDx=0;entryDy=0;entryPerimeter=0;exitX=0.5;exitY=0;exitDx=0;exitDy=0;" edge="1" parent="WIyWlLk6GJQsqaUBKTNV-1" source="zlm5GG81audVKw1eRPGY-11" target="zlm5GG81audVKw1eRPGY-114">
          <mxGeometry width="160" relative="1" as="geometry">
            <mxPoint x="490" y="665" as="sourcePoint" />
            <mxPoint x="300" y="570" as="targetPoint" />
            <Array as="points">
              <mxPoint x="520" y="660" />
              <mxPoint x="295" y="660" />
            </Array>
          </mxGeometry>
        </mxCell>
        <mxCell id="zlm5GG81audVKw1eRPGY-117" value="&lt;&lt;enum&gt;&gt;&#xa;AnnouncementStatus" style="swimlane;fontStyle=0;align=center;verticalAlign=top;childLayout=stackLayout;horizontal=1;startSize=38;horizontalStack=0;resizeParent=1;resizeLast=0;collapsible=1;marginBottom=0;rounded=0;shadow=0;strokeWidth=1;" vertex="1" parent="WIyWlLk6GJQsqaUBKTNV-1">
          <mxGeometry x="580" y="480" width="160" height="130" as="geometry">
            <mxRectangle x="-250" y="512" width="170" height="26" as="alternateBounds" />
          </mxGeometry>
        </mxCell>
        <mxCell id="zlm5GG81audVKw1eRPGY-118" value="ACTIVE" style="text;align=left;verticalAlign=top;spacingLeft=4;spacingRight=4;overflow=hidden;rotatable=0;points=[[0,0.5],[1,0.5]];portConstraint=eastwest;" vertex="1" parent="zlm5GG81audVKw1eRPGY-117">
          <mxGeometry y="38" width="160" height="32" as="geometry" />
        </mxCell>
        <mxCell id="zlm5GG81audVKw1eRPGY-119" value="SOLD" style="text;align=left;verticalAlign=top;spacingLeft=4;spacingRight=4;overflow=hidden;rotatable=0;points=[[0,0.5],[1,0.5]];portConstraint=eastwest;" vertex="1" parent="zlm5GG81audVKw1eRPGY-117">
          <mxGeometry y="70" width="160" height="30" as="geometry" />
        </mxCell>
        <mxCell id="zlm5GG81audVKw1eRPGY-120" value="INACTIVE" style="text;align=left;verticalAlign=top;spacingLeft=4;spacingRight=4;overflow=hidden;rotatable=0;points=[[0,0.5],[1,0.5]];portConstraint=eastwest;" vertex="1" parent="zlm5GG81audVKw1eRPGY-117">
          <mxGeometry y="100" width="160" height="30" as="geometry" />
        </mxCell>
        <mxCell id="zlm5GG81audVKw1eRPGY-121" style="edgeStyle=orthogonalEdgeStyle;rounded=0;orthogonalLoop=1;jettySize=auto;html=1;exitX=1;exitY=0.5;exitDx=0;exitDy=0;entryX=-0.009;entryY=0.147;entryDx=0;entryDy=0;entryPerimeter=0;" edge="1" parent="WIyWlLk6GJQsqaUBKTNV-1" source="zlm5GG81audVKw1eRPGY-112" target="zlm5GG81audVKw1eRPGY-117">
          <mxGeometry relative="1" as="geometry" />
        </mxCell>
        <mxCell id="zlm5GG81audVKw1eRPGY-122" value="&lt;&lt;enum&gt;&gt;&#xa;TutoringType" style="swimlane;fontStyle=0;align=center;verticalAlign=top;childLayout=stackLayout;horizontal=1;startSize=38;horizontalStack=0;resizeParent=1;resizeLast=0;collapsible=1;marginBottom=0;rounded=0;shadow=0;strokeWidth=1;" vertex="1" parent="WIyWlLk6GJQsqaUBKTNV-1">
          <mxGeometry x="-220" y="890" width="160" height="100" as="geometry">
            <mxRectangle x="-250" y="512" width="170" height="26" as="alternateBounds" />
          </mxGeometry>
        </mxCell>
        <mxCell id="zlm5GG81audVKw1eRPGY-123" value="REMOTE" style="text;align=left;verticalAlign=top;spacingLeft=4;spacingRight=4;overflow=hidden;rotatable=0;points=[[0,0.5],[1,0.5]];portConstraint=eastwest;" vertex="1" parent="zlm5GG81audVKw1eRPGY-122">
          <mxGeometry y="38" width="160" height="32" as="geometry" />
        </mxCell>
        <mxCell id="zlm5GG81audVKw1eRPGY-124" value="ONSITE" style="text;align=left;verticalAlign=top;spacingLeft=4;spacingRight=4;overflow=hidden;rotatable=0;points=[[0,0.5],[1,0.5]];portConstraint=eastwest;" vertex="1" parent="zlm5GG81audVKw1eRPGY-122">
          <mxGeometry y="70" width="160" height="30" as="geometry" />
        </mxCell>
        <mxCell id="zlm5GG81audVKw1eRPGY-148" value="1" style="endArrow=open;html=1;endSize=12;startArrow=diamondThin;startSize=14;startFill=1;edgeStyle=orthogonalEdgeStyle;align=left;verticalAlign=bottom;rounded=0;exitX=0.49;exitY=1.011;exitDx=0;exitDy=0;exitPerimeter=0;entryX=0;entryY=0.692;entryDx=0;entryDy=0;entryPerimeter=0;" edge="1" parent="WIyWlLk6GJQsqaUBKTNV-1" source="zlm5GG81audVKw1eRPGY-136" target="zlm5GG81audVKw1eRPGY-146">
          <mxGeometry x="-0.8524" y="-18" relative="1" as="geometry">
            <mxPoint x="297.9199999999996" y="899.9980000000002" as="sourcePoint" />
            <mxPoint x="200.5999999999999" y="1083.702" as="targetPoint" />
            <Array as="points">
              <mxPoint x="298" y="960" />
              <mxPoint x="180" y="960" />
              <mxPoint x="180" y="1059" />
              <mxPoint x="200" y="1059" />
            </Array>
            <mxPoint as="offset" />
          </mxGeometry>
        </mxCell>
        <mxCell id="zlm5GG81audVKw1eRPGY-149" style="edgeStyle=orthogonalEdgeStyle;rounded=0;orthogonalLoop=1;jettySize=auto;html=1;exitX=0;exitY=0.5;exitDx=0;exitDy=0;entryX=0.998;entryY=0.223;entryDx=0;entryDy=0;entryPerimeter=0;" edge="1" parent="WIyWlLk6GJQsqaUBKTNV-1" source="zlm5GG81audVKw1eRPGY-132" target="zlm5GG81audVKw1eRPGY-122">
          <mxGeometry relative="1" as="geometry" />
        </mxCell>
        <mxCell id="zlm5GG81audVKw1eRPGY-150" value="0...*" style="text;align=center;fontStyle=0;verticalAlign=middle;spacingLeft=3;spacingRight=3;strokeColor=none;rotatable=0;points=[[0,0.5],[1,0.5]];portConstraint=eastwest;html=1;" vertex="1" parent="WIyWlLk6GJQsqaUBKTNV-1">
          <mxGeometry x="150" y="1050" width="20" height="16" as="geometry" />
        </mxCell>
        <mxCell id="zlm5GG81audVKw1eRPGY-151" value="1" style="endArrow=open;html=1;endSize=12;startArrow=diamondThin;startSize=14;startFill=1;edgeStyle=orthogonalEdgeStyle;align=left;verticalAlign=bottom;rounded=0;" edge="1" parent="WIyWlLk6GJQsqaUBKTNV-1">
          <mxGeometry x="-1" y="3" relative="1" as="geometry">
            <mxPoint x="600" y="860" as="sourcePoint" />
            <mxPoint x="760" y="860" as="targetPoint" />
          </mxGeometry>
        </mxCell>
        <mxCell id="zlm5GG81audVKw1eRPGY-169" value="1" style="endArrow=open;html=1;endSize=12;startArrow=diamondThin;startSize=14;startFill=1;edgeStyle=orthogonalEdgeStyle;align=left;verticalAlign=bottom;rounded=0;exitX=-0.004;exitY=0.035;exitDx=0;exitDy=0;exitPerimeter=0;entryX=-0.007;entryY=0.626;entryDx=0;entryDy=0;entryPerimeter=0;" edge="1" parent="WIyWlLk6GJQsqaUBKTNV-1" source="zlm5GG81audVKw1eRPGY-0" target="zlm5GG81audVKw1eRPGY-161">
          <mxGeometry x="-0.8457" relative="1" as="geometry">
            <mxPoint x="-540.1599999999999" y="339.40999999999997" as="sourcePoint" />
            <mxPoint x="-655.08" y="197" as="targetPoint" />
            <Array as="points">
              <mxPoint x="-700" y="339" />
              <mxPoint x="-700" y="197" />
              <mxPoint x="-680" y="197" />
            </Array>
            <mxPoint as="offset" />
          </mxGeometry>
        </mxCell>
        <mxCell id="zlm5GG81audVKw1eRPGY-170" value="1" style="endArrow=open;html=1;endSize=12;startArrow=diamondThin;startSize=14;startFill=1;edgeStyle=orthogonalEdgeStyle;align=left;verticalAlign=bottom;rounded=0;exitX=0.25;exitY=0;exitDx=0;exitDy=0;" edge="1" parent="WIyWlLk6GJQsqaUBKTNV-1" source="zlm5GG81audVKw1eRPGY-0">
          <mxGeometry x="-0.9714" y="20" relative="1" as="geometry">
            <mxPoint x="-810" y="170" as="sourcePoint" />
            <mxPoint x="-650" y="170" as="targetPoint" />
            <Array as="points">
              <mxPoint x="-470" y="40" />
              <mxPoint x="-700" y="40" />
              <mxPoint x="-700" y="170" />
            </Array>
            <mxPoint as="offset" />
          </mxGeometry>
        </mxCell>
        <mxCell id="zlm5GG81audVKw1eRPGY-171" value="0...*" style="text;align=center;fontStyle=0;verticalAlign=middle;spacingLeft=3;spacingRight=3;strokeColor=none;rotatable=0;points=[[0,0.5],[1,0.5]];portConstraint=eastwest;html=1;" vertex="1" parent="WIyWlLk6GJQsqaUBKTNV-1">
          <mxGeometry x="-690" y="150" width="20" height="16" as="geometry" />
        </mxCell>
        <mxCell id="zlm5GG81audVKw1eRPGY-172" value="0...*" style="text;align=center;fontStyle=0;verticalAlign=middle;spacingLeft=3;spacingRight=3;strokeColor=none;rotatable=0;points=[[0,0.5],[1,0.5]];portConstraint=eastwest;html=1;" vertex="1" parent="WIyWlLk6GJQsqaUBKTNV-1">
          <mxGeometry x="-690" y="181" width="20" height="16" as="geometry" />
        </mxCell>
        <mxCell id="zlm5GG81audVKw1eRPGY-175" value="1" style="endArrow=open;html=1;endSize=12;startArrow=diamondThin;startSize=14;startFill=1;edgeStyle=orthogonalEdgeStyle;align=left;verticalAlign=bottom;rounded=0;entryX=-0.019;entryY=0.556;entryDx=0;entryDy=0;exitX=0.491;exitY=-0.004;exitDx=0;exitDy=0;exitPerimeter=0;entryPerimeter=0;" edge="1" parent="WIyWlLk6GJQsqaUBKTNV-1" source="zlm5GG81audVKw1eRPGY-0" target="zlm5GG81audVKw1eRPGY-164">
          <mxGeometry x="-0.9251" y="19" relative="1" as="geometry">
            <mxPoint x="-440" y="309" as="sourcePoint" />
            <mxPoint x="-400" y="150" as="targetPoint" />
            <mxPoint as="offset" />
          </mxGeometry>
        </mxCell>
        <mxCell id="zlm5GG81audVKw1eRPGY-176" value="0...*" style="text;align=center;fontStyle=0;verticalAlign=middle;spacingLeft=3;spacingRight=3;strokeColor=none;rotatable=0;points=[[0,0.5],[1,0.5]];portConstraint=eastwest;html=1;" vertex="1" parent="WIyWlLk6GJQsqaUBKTNV-1">
          <mxGeometry x="-400" y="150" width="20" height="16" as="geometry" />
        </mxCell>
        <mxCell id="zlm5GG81audVKw1eRPGY-178" value="1" style="endArrow=open;html=1;endSize=12;startArrow=diamondThin;startSize=14;startFill=1;edgeStyle=orthogonalEdgeStyle;align=left;verticalAlign=bottom;rounded=0;exitX=0.689;exitY=-0.003;exitDx=0;exitDy=0;entryX=-0.013;entryY=0.541;entryDx=0;entryDy=0;entryPerimeter=0;exitPerimeter=0;" edge="1" parent="WIyWlLk6GJQsqaUBKTNV-1" source="zlm5GG81audVKw1eRPGY-0" target="zlm5GG81audVKw1eRPGY-163">
          <mxGeometry x="-0.8907" y="20" relative="1" as="geometry">
            <mxPoint x="-390" y="270" as="sourcePoint" />
            <mxPoint x="-230" y="270" as="targetPoint" />
            <mxPoint as="offset" />
          </mxGeometry>
        </mxCell>
        <mxCell id="zlm5GG81audVKw1eRPGY-179" value="0...*" style="text;align=center;fontStyle=0;verticalAlign=middle;spacingLeft=3;spacingRight=3;strokeColor=none;rotatable=0;points=[[0,0.5],[1,0.5]];portConstraint=eastwest;html=1;" vertex="1" parent="WIyWlLk6GJQsqaUBKTNV-1">
          <mxGeometry x="-400" y="181" width="20" height="16" as="geometry" />
        </mxCell>
        <mxCell id="zlm5GG81audVKw1eRPGY-181" value="&lt;&lt;enum&gt;&gt;&#xa;TransactionType" style="swimlane;fontStyle=0;align=center;verticalAlign=top;childLayout=stackLayout;horizontal=1;startSize=38;horizontalStack=0;resizeParent=1;resizeLast=0;collapsible=1;marginBottom=0;rounded=0;shadow=0;strokeWidth=1;" vertex="1" parent="WIyWlLk6GJQsqaUBKTNV-1">
          <mxGeometry x="-115" y="1240" width="160" height="100" as="geometry">
            <mxRectangle x="-250" y="512" width="170" height="26" as="alternateBounds" />
          </mxGeometry>
        </mxCell>
        <mxCell id="zlm5GG81audVKw1eRPGY-182" value="EARN" style="text;align=left;verticalAlign=top;spacingLeft=4;spacingRight=4;overflow=hidden;rotatable=0;points=[[0,0.5],[1,0.5]];portConstraint=eastwest;" vertex="1" parent="zlm5GG81audVKw1eRPGY-181">
          <mxGeometry y="38" width="160" height="32" as="geometry" />
        </mxCell>
        <mxCell id="zlm5GG81audVKw1eRPGY-183" value="SPEND" style="text;align=left;verticalAlign=top;spacingLeft=4;spacingRight=4;overflow=hidden;rotatable=0;points=[[0,0.5],[1,0.5]];portConstraint=eastwest;" vertex="1" parent="zlm5GG81audVKw1eRPGY-181">
          <mxGeometry y="70" width="160" height="30" as="geometry" />
        </mxCell>
        <mxCell id="zlm5GG81audVKw1eRPGY-195" value="1" style="endArrow=open;html=1;endSize=12;startArrow=diamondThin;startSize=14;startFill=1;edgeStyle=orthogonalEdgeStyle;align=left;verticalAlign=bottom;rounded=0;exitX=0.16;exitY=1;exitDx=0;exitDy=0;exitPerimeter=0;" edge="1" parent="WIyWlLk6GJQsqaUBKTNV-1" source="zlm5GG81audVKw1eRPGY-68">
          <mxGeometry x="-0.911" y="-16" relative="1" as="geometry">
            <mxPoint x="-490" y="620" as="sourcePoint" />
            <mxPoint x="-380" y="1160" as="targetPoint" />
            <Array as="points">
              <mxPoint x="-484" y="930" />
              <mxPoint x="-484" y="1160" />
            </Array>
            <mxPoint as="offset" />
          </mxGeometry>
        </mxCell>
        <mxCell id="zlm5GG81audVKw1eRPGY-196" value="1" style="endArrow=open;html=1;endSize=12;startArrow=diamondThin;startSize=14;startFill=1;edgeStyle=orthogonalEdgeStyle;align=left;verticalAlign=bottom;rounded=0;exitX=0.306;exitY=1.022;exitDx=0;exitDy=0;exitPerimeter=0;" edge="1" parent="WIyWlLk6GJQsqaUBKTNV-1" source="zlm5GG81audVKw1eRPGY-68">
          <mxGeometry x="-0.9135" y="-19" relative="1" as="geometry">
            <mxPoint x="-540" y="1190" as="sourcePoint" />
            <mxPoint x="-380" y="1190" as="targetPoint" />
            <Array as="points">
              <mxPoint x="-461" y="1190" />
            </Array>
            <mxPoint as="offset" />
          </mxGeometry>
        </mxCell>
        <mxCell id="zlm5GG81audVKw1eRPGY-199" style="edgeStyle=orthogonalEdgeStyle;rounded=0;orthogonalLoop=1;jettySize=auto;html=1;exitX=1;exitY=0.5;exitDx=0;exitDy=0;entryX=0;entryY=0.25;entryDx=0;entryDy=0;" edge="1" parent="WIyWlLk6GJQsqaUBKTNV-1" source="zlm5GG81audVKw1eRPGY-190" target="zlm5GG81audVKw1eRPGY-181">
          <mxGeometry relative="1" as="geometry" />
        </mxCell>
        <mxCell id="zlm5GG81audVKw1eRPGY-200" value="0...*" style="text;align=center;fontStyle=0;verticalAlign=middle;spacingLeft=3;spacingRight=3;strokeColor=none;rotatable=0;points=[[0,0.5],[1,0.5]];portConstraint=eastwest;html=1;" vertex="1" parent="WIyWlLk6GJQsqaUBKTNV-1">
          <mxGeometry x="-420" y="1172" width="20" height="16" as="geometry" />
        </mxCell>
        <mxCell id="zlm5GG81audVKw1eRPGY-201" value="0...*" style="text;align=center;fontStyle=0;verticalAlign=middle;spacingLeft=3;spacingRight=3;strokeColor=none;rotatable=0;points=[[0,0.5],[1,0.5]];portConstraint=eastwest;html=1;" vertex="1" parent="WIyWlLk6GJQsqaUBKTNV-1">
          <mxGeometry x="-420" y="1140" width="20" height="16" as="geometry" />
        </mxCell>
        <mxCell id="zlm5GG81audVKw1eRPGY-202" value="1" style="endArrow=open;html=1;endSize=12;startArrow=diamondThin;startSize=14;startFill=1;edgeStyle=orthogonalEdgeStyle;align=left;verticalAlign=bottom;rounded=0;exitX=-0.008;exitY=0.057;exitDx=0;exitDy=0;exitPerimeter=0;entryX=0;entryY=0.5;entryDx=0;entryDy=0;" edge="1" parent="WIyWlLk6GJQsqaUBKTNV-1" source="zkfFHV4jXpPFQw0GAbJ--0" target="zlm5GG81audVKw1eRPGY-188">
          <mxGeometry x="-0.9666" y="-4" relative="1" as="geometry">
            <mxPoint x="-90" y="780" as="sourcePoint" />
            <mxPoint x="70" y="780" as="targetPoint" />
            <Array as="points">
              <mxPoint x="-40" y="344" />
              <mxPoint x="-40" y="760" />
              <mxPoint x="-240" y="760" />
              <mxPoint x="-240" y="980" />
              <mxPoint x="-510" y="980" />
              <mxPoint x="-510" y="1214" />
            </Array>
            <mxPoint as="offset" />
          </mxGeometry>
        </mxCell>
        <mxCell id="zlm5GG81audVKw1eRPGY-204" value="0...*" style="text;align=center;fontStyle=0;verticalAlign=middle;spacingLeft=3;spacingRight=3;strokeColor=none;rotatable=0;points=[[0,0.5],[1,0.5]];portConstraint=eastwest;html=1;" vertex="1" parent="WIyWlLk6GJQsqaUBKTNV-1">
          <mxGeometry x="-420" y="1200" width="20" height="16" as="geometry" />
        </mxCell>
        <mxCell id="zlm5GG81audVKw1eRPGY-205" value="&lt;&lt;enum&gt;&gt;&#xa;SkillStatus" style="swimlane;fontStyle=0;align=center;verticalAlign=top;childLayout=stackLayout;horizontal=1;startSize=38;horizontalStack=0;resizeParent=1;resizeLast=0;collapsible=1;marginBottom=0;rounded=0;shadow=0;strokeWidth=1;" vertex="1" parent="WIyWlLk6GJQsqaUBKTNV-1">
          <mxGeometry x="520" y="950" width="160" height="100" as="geometry">
            <mxRectangle x="-250" y="512" width="170" height="26" as="alternateBounds" />
          </mxGeometry>
        </mxCell>
        <mxCell id="zlm5GG81audVKw1eRPGY-206" value="ACTIVE" style="text;align=left;verticalAlign=top;spacingLeft=4;spacingRight=4;overflow=hidden;rotatable=0;points=[[0,0.5],[1,0.5]];portConstraint=eastwest;" vertex="1" parent="zlm5GG81audVKw1eRPGY-205">
          <mxGeometry y="38" width="160" height="32" as="geometry" />
        </mxCell>
        <mxCell id="zlm5GG81audVKw1eRPGY-207" value="SOLD" style="text;align=left;verticalAlign=top;spacingLeft=4;spacingRight=4;overflow=hidden;rotatable=0;points=[[0,0.5],[1,0.5]];portConstraint=eastwest;" vertex="1" parent="zlm5GG81audVKw1eRPGY-205">
          <mxGeometry y="70" width="160" height="30" as="geometry" />
        </mxCell>
        <mxCell id="zlm5GG81audVKw1eRPGY-208" style="edgeStyle=orthogonalEdgeStyle;rounded=0;orthogonalLoop=1;jettySize=auto;html=1;exitX=0;exitY=0.5;exitDx=0;exitDy=0;entryX=1;entryY=0.117;entryDx=0;entryDy=0;entryPerimeter=0;" edge="1" parent="WIyWlLk6GJQsqaUBKTNV-1" source="zlm5GG81audVKw1eRPGY-156" target="zlm5GG81audVKw1eRPGY-205">
          <mxGeometry relative="1" as="geometry" />
        </mxCell>
        <mxCell id="zlm5GG81audVKw1eRPGY-209" value="1...*" style="text;align=center;fontStyle=0;verticalAlign=middle;spacingLeft=3;spacingRight=3;strokeColor=none;rotatable=0;points=[[0,0.5],[1,0.5]];portConstraint=eastwest;html=1;" vertex="1" parent="WIyWlLk6GJQsqaUBKTNV-1">
          <mxGeometry x="720" y="840" width="20" height="16" as="geometry" />
        </mxCell>
        <mxCell id="zlm5GG81audVKw1eRPGY-210" value="1" style="endArrow=open;html=1;endSize=12;startArrow=diamondThin;startSize=14;startFill=1;edgeStyle=orthogonalEdgeStyle;align=left;verticalAlign=bottom;rounded=0;entryX=0;entryY=0.5;entryDx=0;entryDy=0;exitX=-0.01;exitY=0.945;exitDx=0;exitDy=0;exitPerimeter=0;" edge="1" parent="WIyWlLk6GJQsqaUBKTNV-1" source="zlm5GG81audVKw1eRPGY-1" target="zlm5GG81audVKw1eRPGY-101">
          <mxGeometry x="-0.917" y="-1" relative="1" as="geometry">
            <mxPoint x="-520" y="380" as="sourcePoint" />
            <mxPoint x="-710" y="420" as="targetPoint" />
            <Array as="points">
              <mxPoint x="-980" y="381" />
              <mxPoint x="-980" y="215" />
            </Array>
            <mxPoint as="offset" />
          </mxGeometry>
        </mxCell>
        <mxCell id="zlm5GG81audVKw1eRPGY-211" value="1" style="text;align=center;fontStyle=0;verticalAlign=middle;spacingLeft=3;spacingRight=3;strokeColor=none;rotatable=0;points=[[0,0.5],[1,0.5]];portConstraint=eastwest;html=1;" vertex="1" parent="WIyWlLk6GJQsqaUBKTNV-1">
          <mxGeometry x="-970" y="193" width="20" height="16" as="geometry" />
        </mxCell>
      </root>
    </mxGraphModel>
  </diagram>
  <diagram id="6zYpmj8CIi9UG7tTnAZz" name="usecase-diagram">
    <mxGraphModel dx="2620" dy="2102" grid="1" gridSize="10" guides="1" tooltips="1" connect="1" arrows="1" fold="1" page="1" pageScale="1" pageWidth="827" pageHeight="1169" math="0" shadow="0">
      <root>
        <mxCell id="0" />
        <mxCell id="1" parent="0" />
        <mxCell id="HHdXXKOPEjyAczzVmKq9-1" value="USER" style="shape=umlActor;verticalLabelPosition=bottom;verticalAlign=top;html=1;" vertex="1" parent="1">
          <mxGeometry x="-260" y="525" width="30" height="60" as="geometry" />
        </mxCell>
        <mxCell id="HHdXXKOPEjyAczzVmKq9-2" value="ADMIN" style="shape=umlActor;verticalLabelPosition=bottom;verticalAlign=top;html=1;" vertex="1" parent="1">
          <mxGeometry x="1270" y="975" width="30" height="60" as="geometry" />
        </mxCell>
        <mxCell id="HHdXXKOPEjyAczzVmKq9-3" value="Înregistrare" style="ellipse;whiteSpace=wrap;html=1;" vertex="1" parent="1">
          <mxGeometry x="50" y="-100" width="90" height="50" as="geometry" />
        </mxCell>
        <mxCell id="HHdXXKOPEjyAczzVmKq9-4" value="Autentificare" style="ellipse;whiteSpace=wrap;html=1;" vertex="1" parent="1">
          <mxGeometry x="550" y="790" width="90" height="50" as="geometry" />
        </mxCell>
        <mxCell id="HHdXXKOPEjyAczzVmKq9-5" value="Creare anunț" style="ellipse;whiteSpace=wrap;html=1;" vertex="1" parent="1">
          <mxGeometry x="50" y="-20" width="90" height="50" as="geometry" />
        </mxCell>
        <mxCell id="HHdXXKOPEjyAczzVmKq9-6" value="Editare anunț" style="ellipse;whiteSpace=wrap;html=1;" vertex="1" parent="1">
          <mxGeometry x="50" y="60" width="90" height="50" as="geometry" />
        </mxCell>
        <mxCell id="HHdXXKOPEjyAczzVmKq9-7" value="Cumpărare anunț de tip material didactic sau serviciu de tutorat" style="ellipse;whiteSpace=wrap;html=1;" vertex="1" parent="1">
          <mxGeometry x="32.5" y="120" width="125" height="70" as="geometry" />
        </mxCell>
        <mxCell id="HHdXXKOPEjyAczzVmKq9-8" value="Vizualizare profil" style="ellipse;whiteSpace=wrap;html=1;" vertex="1" parent="1">
          <mxGeometry x="40" y="330" width="90" height="50" as="geometry" />
        </mxCell>
        <mxCell id="HHdXXKOPEjyAczzVmKq9-9" value="Editare date cont" style="ellipse;whiteSpace=wrap;html=1;" vertex="1" parent="1">
          <mxGeometry x="40" y="410" width="90" height="50" as="geometry" />
        </mxCell>
        <mxCell id="HHdXXKOPEjyAczzVmKq9-10" value="Ștergere anunț" style="ellipse;whiteSpace=wrap;html=1;" vertex="1" parent="1">
          <mxGeometry x="40" y="490" width="90" height="50" as="geometry" />
        </mxCell>
        <mxCell id="HHdXXKOPEjyAczzVmKq9-11" value="Vizualizare anunțurile mele" style="ellipse;whiteSpace=wrap;html=1;" vertex="1" parent="1">
          <mxGeometry x="40" y="570" width="90" height="50" as="geometry" />
        </mxCell>
        <mxCell id="HHdXXKOPEjyAczzVmKq9-12" value="Vizualizare anunțuri favorite" style="ellipse;whiteSpace=wrap;html=1;" vertex="1" parent="1">
          <mxGeometry x="40" y="650" width="90" height="50" as="geometry" />
        </mxCell>
        <mxCell id="HHdXXKOPEjyAczzVmKq9-13" value="Adăugare anunț favorit" style="ellipse;whiteSpace=wrap;html=1;" vertex="1" parent="1">
          <mxGeometry x="40" y="730" width="90" height="50" as="geometry" />
        </mxCell>
        <mxCell id="HHdXXKOPEjyAczzVmKq9-14" value="Ștergere anunț favorit" style="ellipse;whiteSpace=wrap;html=1;" vertex="1" parent="1">
          <mxGeometry x="40" y="800" width="90" height="50" as="geometry" />
        </mxCell>
        <mxCell id="HHdXXKOPEjyAczzVmKq9-15" value="Vizualizare detalii anunț" style="ellipse;whiteSpace=wrap;html=1;" vertex="1" parent="1">
          <mxGeometry x="40" y="870" width="90" height="50" as="geometry" />
        </mxCell>
        <mxCell id="HHdXXKOPEjyAczzVmKq9-16" value="Vizualizare anunturi disponibile" style="ellipse;whiteSpace=wrap;html=1;" vertex="1" parent="1">
          <mxGeometry x="40" y="950" width="90" height="50" as="geometry" />
        </mxCell>
        <mxCell id="HHdXXKOPEjyAczzVmKq9-17" value="Filtrări anunțuri" style="ellipse;whiteSpace=wrap;html=1;" vertex="1" parent="1">
          <mxGeometry x="40" y="1030" width="90" height="50" as="geometry" />
        </mxCell>
        <mxCell id="HHdXXKOPEjyAczzVmKq9-18" value="Sortări anunțuri" style="ellipse;whiteSpace=wrap;html=1;" vertex="1" parent="1">
          <mxGeometry x="40" y="1110" width="90" height="50" as="geometry" />
        </mxCell>
        <mxCell id="HHdXXKOPEjyAczzVmKq9-19" value="Vizualizare tranzacții" style="ellipse;whiteSpace=wrap;html=1;" vertex="1" parent="1">
          <mxGeometry x="40" y="1190" width="90" height="50" as="geometry" />
        </mxCell>
        <mxCell id="HHdXXKOPEjyAczzVmKq9-20" value="Filtrări tranzacții" style="ellipse;whiteSpace=wrap;html=1;" vertex="1" parent="1">
          <mxGeometry x="40" y="1270" width="90" height="50" as="geometry" />
        </mxCell>
        <mxCell id="HHdXXKOPEjyAczzVmKq9-21" value="Sortări tranzacții" style="ellipse;whiteSpace=wrap;html=1;" vertex="1" parent="1">
          <mxGeometry x="40" y="1350" width="90" height="50" as="geometry" />
        </mxCell>
        <mxCell id="HHdXXKOPEjyAczzVmKq9-22" value="Vizualizare conversații private" style="ellipse;whiteSpace=wrap;html=1;" vertex="1" parent="1">
          <mxGeometry x="40" y="1430" width="90" height="50" as="geometry" />
        </mxCell>
        <mxCell id="HHdXXKOPEjyAczzVmKq9-23" value="Vizualizare mesaje din conversații" style="ellipse;whiteSpace=wrap;html=1;" vertex="1" parent="1">
          <mxGeometry x="40" y="1513.5" width="90" height="50" as="geometry" />
        </mxCell>
        <mxCell id="HHdXXKOPEjyAczzVmKq9-24" value="Trimitere mesaj" style="ellipse;whiteSpace=wrap;html=1;" vertex="1" parent="1">
          <mxGeometry x="40" y="1590" width="90" height="50" as="geometry" />
        </mxCell>
        <mxCell id="HHdXXKOPEjyAczzVmKq9-25" value="Deconectare" style="ellipse;whiteSpace=wrap;html=1;" vertex="1" parent="1">
          <mxGeometry x="550" y="1010" width="90" height="50" as="geometry" />
        </mxCell>
        <mxCell id="HHdXXKOPEjyAczzVmKq9-32" value="Cont deja existent" style="ellipse;whiteSpace=wrap;html=1;" vertex="1" parent="1">
          <mxGeometry x="360" y="-60" width="90" height="50" as="geometry" />
        </mxCell>
        <mxCell id="HHdXXKOPEjyAczzVmKq9-33" value="Parolă incorectă" style="ellipse;whiteSpace=wrap;html=1;" vertex="1" parent="1">
          <mxGeometry x="770" y="680" width="90" height="50" as="geometry" />
        </mxCell>
        <mxCell id="HHdXXKOPEjyAczzVmKq9-34" value="Cont neverificat" style="ellipse;whiteSpace=wrap;html=1;" vertex="1" parent="1">
          <mxGeometry x="1000" y="-40" width="90" height="50" as="geometry" />
        </mxCell>
        <mxCell id="HHdXXKOPEjyAczzVmKq9-36" value="&amp;lt;&amp;lt;extend&amp;gt;&amp;gt;" style="endArrow=open;endSize=12;dashed=1;html=1;rounded=0;exitX=0;exitY=0.5;exitDx=0;exitDy=0;entryX=1;entryY=1;entryDx=0;entryDy=0;" edge="1" parent="1" source="HHdXXKOPEjyAczzVmKq9-32" target="HHdXXKOPEjyAczzVmKq9-3">
          <mxGeometry y="-10" width="160" relative="1" as="geometry">
            <mxPoint x="220" y="55" as="sourcePoint" />
            <mxPoint x="130" y="54.65999999999997" as="targetPoint" />
            <mxPoint as="offset" />
          </mxGeometry>
        </mxCell>
        <mxCell id="HHdXXKOPEjyAczzVmKq9-37" value="&amp;lt;&amp;lt;extend&amp;gt;&amp;gt;" style="endArrow=open;endSize=12;dashed=1;html=1;rounded=0;exitX=0.5;exitY=1;exitDx=0;exitDy=0;" edge="1" parent="1" source="HHdXXKOPEjyAczzVmKq9-33" target="HHdXXKOPEjyAczzVmKq9-4">
          <mxGeometry y="-10" width="160" relative="1" as="geometry">
            <mxPoint x="740" y="740.3399999999999" as="sourcePoint" />
            <mxPoint x="640" y="740" as="targetPoint" />
            <mxPoint as="offset" />
          </mxGeometry>
        </mxCell>
        <mxCell id="HHdXXKOPEjyAczzVmKq9-38" value="&amp;lt;&amp;lt;extend&amp;gt;&amp;gt;" style="endArrow=open;endSize=12;dashed=1;html=1;rounded=0;exitX=0.5;exitY=1;exitDx=0;exitDy=0;spacingLeft=0;entryX=1;entryY=0;entryDx=0;entryDy=0;" edge="1" parent="1" source="HHdXXKOPEjyAczzVmKq9-34" target="HHdXXKOPEjyAczzVmKq9-4">
          <mxGeometry x="0.0614" y="-21" width="160" relative="1" as="geometry">
            <mxPoint x="480" y="490.34000000000003" as="sourcePoint" />
            <mxPoint x="380" y="490" as="targetPoint" />
            <mxPoint as="offset" />
          </mxGeometry>
        </mxCell>
        <mxCell id="HHdXXKOPEjyAczzVmKq9-39" value="&amp;lt;&amp;lt;extend&amp;gt;&amp;gt;" style="endArrow=open;endSize=12;dashed=1;html=1;rounded=0;exitX=0.072;exitY=0.12;exitDx=0;exitDy=0;exitPerimeter=0;entryX=1.002;entryY=0.376;entryDx=0;entryDy=0;entryPerimeter=0;" edge="1" parent="1" source="HHdXXKOPEjyAczzVmKq9-34" target="HHdXXKOPEjyAczzVmKq9-3">
          <mxGeometry x="-0.0877" y="-16" width="160" relative="1" as="geometry">
            <mxPoint x="260" y="85" as="sourcePoint" />
            <mxPoint x="160" y="84.65999999999997" as="targetPoint" />
            <mxPoint as="offset" />
          </mxGeometry>
        </mxCell>
        <mxCell id="HHdXXKOPEjyAczzVmKq9-43" value="Cont inexistent" style="ellipse;whiteSpace=wrap;html=1;" vertex="1" parent="1">
          <mxGeometry x="780" y="600" width="90" height="50" as="geometry" />
        </mxCell>
        <mxCell id="HHdXXKOPEjyAczzVmKq9-44" value="&amp;lt;&amp;lt;extend&amp;gt;&amp;gt;" style="endArrow=open;endSize=12;dashed=1;html=1;rounded=0;exitX=0.025;exitY=0.403;exitDx=0;exitDy=0;exitPerimeter=0;entryX=1;entryY=0;entryDx=0;entryDy=0;" edge="1" parent="1" source="HHdXXKOPEjyAczzVmKq9-43" target="HHdXXKOPEjyAczzVmKq9-4">
          <mxGeometry x="-0.127" y="-17" width="160" relative="1" as="geometry">
            <mxPoint x="480" y="600" as="sourcePoint" />
            <mxPoint x="400" y="544.66" as="targetPoint" />
            <mxPoint as="offset" />
          </mxGeometry>
        </mxCell>
        <mxCell id="HHdXXKOPEjyAczzVmKq9-47" style="edgeStyle=orthogonalEdgeStyle;rounded=0;orthogonalLoop=1;jettySize=auto;html=1;curved=1;endArrow=none;endFill=0;entryX=0.029;entryY=0.423;entryDx=0;entryDy=0;entryPerimeter=0;exitX=1;exitY=0.3333333333333333;exitDx=0;exitDy=0;exitPerimeter=0;" edge="1" parent="1" source="HHdXXKOPEjyAczzVmKq9-1" target="HHdXXKOPEjyAczzVmKq9-5">
          <mxGeometry relative="1" as="geometry">
            <mxPoint x="-230" y="550" as="sourcePoint" />
            <mxPoint x="37" y="120" as="targetPoint" />
            <Array as="points">
              <mxPoint x="-65" y="545" />
              <mxPoint x="-65" y="1" />
            </Array>
          </mxGeometry>
        </mxCell>
        <mxCell id="HHdXXKOPEjyAczzVmKq9-48" style="edgeStyle=orthogonalEdgeStyle;rounded=0;orthogonalLoop=1;jettySize=auto;html=1;curved=1;endArrow=none;endFill=0;entryX=0;entryY=0.5;entryDx=0;entryDy=0;exitX=1;exitY=0.3333333333333333;exitDx=0;exitDy=0;exitPerimeter=0;" edge="1" parent="1" source="HHdXXKOPEjyAczzVmKq9-1" target="HHdXXKOPEjyAczzVmKq9-3">
          <mxGeometry relative="1" as="geometry">
            <mxPoint x="-230" y="550" as="sourcePoint" />
            <mxPoint x="38" y="121" as="targetPoint" />
            <Array as="points">
              <mxPoint x="-230" y="525" />
              <mxPoint x="-70" y="525" />
              <mxPoint x="-70" y="-75" />
            </Array>
          </mxGeometry>
        </mxCell>
        <mxCell id="HHdXXKOPEjyAczzVmKq9-49" style="edgeStyle=orthogonalEdgeStyle;rounded=0;orthogonalLoop=1;jettySize=auto;html=1;exitX=1;exitY=0.3333333333333333;exitDx=0;exitDy=0;exitPerimeter=0;curved=1;endArrow=none;endFill=0;entryX=0;entryY=0.5;entryDx=0;entryDy=0;" edge="1" parent="1" source="HHdXXKOPEjyAczzVmKq9-1" target="HHdXXKOPEjyAczzVmKq9-6">
          <mxGeometry relative="1" as="geometry">
            <mxPoint x="-55" y="535" as="sourcePoint" />
            <mxPoint x="53" y="131" as="targetPoint" />
            <Array as="points">
              <mxPoint x="-230" y="525" />
              <mxPoint x="-50" y="525" />
              <mxPoint x="-50" y="85" />
            </Array>
          </mxGeometry>
        </mxCell>
        <mxCell id="HHdXXKOPEjyAczzVmKq9-50" style="edgeStyle=orthogonalEdgeStyle;rounded=0;orthogonalLoop=1;jettySize=auto;html=1;curved=1;endArrow=none;endFill=0;entryX=0;entryY=0.5;entryDx=0;entryDy=0;exitX=1;exitY=0.3333333333333333;exitDx=0;exitDy=0;exitPerimeter=0;" edge="1" parent="1" source="HHdXXKOPEjyAczzVmKq9-1" target="HHdXXKOPEjyAczzVmKq9-7">
          <mxGeometry relative="1" as="geometry">
            <mxPoint x="-230" y="540" as="sourcePoint" />
            <mxPoint x="63" y="141" as="targetPoint" />
            <Array as="points">
              <mxPoint x="-230" y="531" />
              <mxPoint x="-45" y="531" />
              <mxPoint x="-45" y="155" />
            </Array>
          </mxGeometry>
        </mxCell>
        <mxCell id="HHdXXKOPEjyAczzVmKq9-51" style="edgeStyle=orthogonalEdgeStyle;rounded=0;orthogonalLoop=1;jettySize=auto;html=1;exitX=1;exitY=0.3333333333333333;exitDx=0;exitDy=0;exitPerimeter=0;curved=1;endArrow=none;endFill=0;entryX=0;entryY=0.5;entryDx=0;entryDy=0;" edge="1" parent="1" source="HHdXXKOPEjyAczzVmKq9-1" target="HHdXXKOPEjyAczzVmKq9-8">
          <mxGeometry relative="1" as="geometry">
            <mxPoint x="-35" y="555" as="sourcePoint" />
            <mxPoint x="73" y="151" as="targetPoint" />
            <Array as="points">
              <mxPoint x="-230" y="531" />
              <mxPoint x="-35" y="531" />
              <mxPoint x="-35" y="355" />
            </Array>
          </mxGeometry>
        </mxCell>
        <mxCell id="HHdXXKOPEjyAczzVmKq9-53" style="edgeStyle=orthogonalEdgeStyle;rounded=0;orthogonalLoop=1;jettySize=auto;html=1;exitX=1;exitY=0.3333333333333333;exitDx=0;exitDy=0;exitPerimeter=0;curved=1;endArrow=none;endFill=0;entryX=0;entryY=0.5;entryDx=0;entryDy=0;" edge="1" parent="1" source="HHdXXKOPEjyAczzVmKq9-1" target="HHdXXKOPEjyAczzVmKq9-9">
          <mxGeometry relative="1" as="geometry">
            <mxPoint x="-30" y="650" as="sourcePoint" />
            <mxPoint x="78" y="246" as="targetPoint" />
            <Array as="points">
              <mxPoint x="-30" y="545" />
              <mxPoint x="-30" y="440" />
              <mxPoint x="40" y="440" />
            </Array>
          </mxGeometry>
        </mxCell>
        <mxCell id="HHdXXKOPEjyAczzVmKq9-72" style="edgeStyle=orthogonalEdgeStyle;rounded=0;orthogonalLoop=1;jettySize=auto;html=1;curved=1;endArrow=none;endFill=0;entryX=0;entryY=0.5;entryDx=0;entryDy=0;exitX=1;exitY=0.3333333333333333;exitDx=0;exitDy=0;exitPerimeter=0;" edge="1" parent="1" source="HHdXXKOPEjyAczzVmKq9-1">
          <mxGeometry relative="1" as="geometry">
            <mxPoint x="-210" y="550" as="sourcePoint" />
            <mxPoint x="40" y="510" as="targetPoint" />
            <Array as="points">
              <mxPoint x="-230" y="550" />
              <mxPoint x="-50" y="550" />
              <mxPoint x="-50" y="510" />
            </Array>
          </mxGeometry>
        </mxCell>
        <mxCell id="HHdXXKOPEjyAczzVmKq9-73" style="edgeStyle=orthogonalEdgeStyle;rounded=0;orthogonalLoop=1;jettySize=auto;html=1;curved=1;endArrow=none;endFill=0;entryX=0;entryY=0.5;entryDx=0;entryDy=0;exitX=1;exitY=0.3333333333333333;exitDx=0;exitDy=0;exitPerimeter=0;" edge="1" parent="1" source="HHdXXKOPEjyAczzVmKq9-1" target="HHdXXKOPEjyAczzVmKq9-11">
          <mxGeometry relative="1" as="geometry">
            <mxPoint x="-220" y="555" as="sourcePoint" />
            <mxPoint x="50" y="520" as="targetPoint" />
            <Array as="points">
              <mxPoint x="-230" y="550" />
              <mxPoint x="-220" y="550" />
              <mxPoint x="-220" y="560" />
              <mxPoint x="-40" y="560" />
              <mxPoint x="-40" y="580" />
              <mxPoint x="40" y="580" />
            </Array>
          </mxGeometry>
        </mxCell>
        <mxCell id="HHdXXKOPEjyAczzVmKq9-74" style="edgeStyle=orthogonalEdgeStyle;rounded=0;orthogonalLoop=1;jettySize=auto;html=1;curved=1;endArrow=none;endFill=0;entryX=0;entryY=0.5;entryDx=0;entryDy=0;exitX=1;exitY=0.3333333333333333;exitDx=0;exitDy=0;exitPerimeter=0;" edge="1" parent="1" source="HHdXXKOPEjyAczzVmKq9-1" target="HHdXXKOPEjyAczzVmKq9-12">
          <mxGeometry relative="1" as="geometry">
            <mxPoint x="-210" y="565" as="sourcePoint" />
            <mxPoint x="60" y="530" as="targetPoint" />
            <Array as="points">
              <mxPoint x="-230" y="560" />
              <mxPoint x="-210" y="560" />
              <mxPoint x="-210" y="570" />
              <mxPoint x="-30" y="570" />
              <mxPoint x="-30" y="610" />
              <mxPoint x="20" y="610" />
              <mxPoint x="20" y="675" />
            </Array>
          </mxGeometry>
        </mxCell>
        <mxCell id="HHdXXKOPEjyAczzVmKq9-76" value="" style="curved=1;endArrow=none;html=1;rounded=0;endFill=0;exitX=0;exitY=0.5;exitDx=0;exitDy=0;entryX=1;entryY=0.3333333333333333;entryDx=0;entryDy=0;entryPerimeter=0;" edge="1" parent="1" source="HHdXXKOPEjyAczzVmKq9-13" target="HHdXXKOPEjyAczzVmKq9-1">
          <mxGeometry width="50" height="50" relative="1" as="geometry">
            <mxPoint x="-60" y="690" as="sourcePoint" />
            <mxPoint x="-230" y="550" as="targetPoint" />
            <Array as="points">
              <mxPoint x="-70" y="740" />
              <mxPoint x="-70" y="620" />
              <mxPoint x="-90" y="580" />
              <mxPoint x="-150" y="560" />
            </Array>
          </mxGeometry>
        </mxCell>
        <mxCell id="HHdXXKOPEjyAczzVmKq9-77" value="" style="curved=1;endArrow=none;html=1;rounded=0;endFill=0;exitX=0;exitY=0.5;exitDx=0;exitDy=0;entryX=1;entryY=0.3333333333333333;entryDx=0;entryDy=0;entryPerimeter=0;" edge="1" parent="1" source="HHdXXKOPEjyAczzVmKq9-14" target="HHdXXKOPEjyAczzVmKq9-1">
          <mxGeometry width="50" height="50" relative="1" as="geometry">
            <mxPoint x="40" y="760" as="sourcePoint" />
            <mxPoint x="-230" y="550" as="targetPoint" />
            <Array as="points">
              <mxPoint x="-100" y="760" />
              <mxPoint x="-70" y="630" />
              <mxPoint x="-70" y="610" />
              <mxPoint x="-70" y="600" />
              <mxPoint x="-80" y="580" />
              <mxPoint x="-160" y="560" />
            </Array>
          </mxGeometry>
        </mxCell>
        <mxCell id="HHdXXKOPEjyAczzVmKq9-78" value="" style="curved=1;endArrow=none;html=1;rounded=0;endFill=0;exitX=0;exitY=0.5;exitDx=0;exitDy=0;entryX=1;entryY=0.3333333333333333;entryDx=0;entryDy=0;entryPerimeter=0;" edge="1" parent="1" source="HHdXXKOPEjyAczzVmKq9-15" target="HHdXXKOPEjyAczzVmKq9-1">
          <mxGeometry width="50" height="50" relative="1" as="geometry">
            <mxPoint x="50" y="835" as="sourcePoint" />
            <mxPoint x="-220" y="555" as="targetPoint" />
            <Array as="points">
              <mxPoint x="-140" y="780" />
              <mxPoint x="-60" y="640" />
              <mxPoint x="-60" y="620" />
              <mxPoint x="-60" y="610" />
              <mxPoint x="-70" y="590" />
              <mxPoint x="-150" y="570" />
            </Array>
          </mxGeometry>
        </mxCell>
        <mxCell id="HHdXXKOPEjyAczzVmKq9-79" value="" style="curved=1;endArrow=none;html=1;rounded=0;endFill=0;exitX=0;exitY=0.5;exitDx=0;exitDy=0;entryX=1;entryY=0.3333333333333333;entryDx=0;entryDy=0;entryPerimeter=0;" edge="1" parent="1" source="HHdXXKOPEjyAczzVmKq9-16" target="HHdXXKOPEjyAczzVmKq9-1">
          <mxGeometry width="50" height="50" relative="1" as="geometry">
            <mxPoint x="60" y="845" as="sourcePoint" />
            <mxPoint x="-210" y="565" as="targetPoint" />
            <Array as="points">
              <mxPoint x="-170" y="770" />
              <mxPoint x="-60" y="640" />
              <mxPoint x="-50" y="620" />
              <mxPoint x="-60" y="600" />
              <mxPoint x="-140" y="580" />
            </Array>
          </mxGeometry>
        </mxCell>
        <mxCell id="HHdXXKOPEjyAczzVmKq9-80" value="" style="curved=1;endArrow=none;html=1;rounded=0;endFill=0;exitX=0;exitY=0.5;exitDx=0;exitDy=0;entryX=1;entryY=0.3333333333333333;entryDx=0;entryDy=0;entryPerimeter=0;" edge="1" parent="1" source="HHdXXKOPEjyAczzVmKq9-17" target="HHdXXKOPEjyAczzVmKq9-1">
          <mxGeometry width="50" height="50" relative="1" as="geometry">
            <mxPoint x="70" y="855" as="sourcePoint" />
            <mxPoint x="-200" y="575" as="targetPoint" />
            <Array as="points">
              <mxPoint x="-210" y="770" />
              <mxPoint x="-40" y="660" />
              <mxPoint x="-40" y="640" />
              <mxPoint x="-40" y="630" />
              <mxPoint x="-50" y="610" />
              <mxPoint x="-130" y="590" />
            </Array>
          </mxGeometry>
        </mxCell>
        <mxCell id="HHdXXKOPEjyAczzVmKq9-81" value="" style="curved=1;endArrow=none;html=1;rounded=0;endFill=0;exitX=0;exitY=0.5;exitDx=0;exitDy=0;entryX=1;entryY=0.3333333333333333;entryDx=0;entryDy=0;entryPerimeter=0;" edge="1" parent="1" source="HHdXXKOPEjyAczzVmKq9-18" target="HHdXXKOPEjyAczzVmKq9-1">
          <mxGeometry width="50" height="50" relative="1" as="geometry">
            <mxPoint x="80" y="865" as="sourcePoint" />
            <mxPoint x="-190" y="585" as="targetPoint" />
            <Array as="points">
              <mxPoint x="-240" y="790" />
              <mxPoint x="-30" y="670" />
              <mxPoint x="-30" y="650" />
              <mxPoint x="-30" y="640" />
              <mxPoint x="-40" y="620" />
              <mxPoint x="-120" y="600" />
            </Array>
          </mxGeometry>
        </mxCell>
        <mxCell id="HHdXXKOPEjyAczzVmKq9-82" value="" style="curved=1;endArrow=none;html=1;rounded=0;endFill=0;exitX=0;exitY=0.5;exitDx=0;exitDy=0;entryX=1;entryY=0.3333333333333333;entryDx=0;entryDy=0;entryPerimeter=0;" edge="1" parent="1" source="HHdXXKOPEjyAczzVmKq9-19" target="HHdXXKOPEjyAczzVmKq9-1">
          <mxGeometry width="50" height="50" relative="1" as="geometry">
            <mxPoint x="90" y="875" as="sourcePoint" />
            <mxPoint x="-180" y="595" as="targetPoint" />
            <Array as="points">
              <mxPoint x="-270" y="820" />
              <mxPoint x="-20" y="680" />
              <mxPoint x="-20" y="660" />
              <mxPoint x="-20" y="650" />
              <mxPoint x="-30" y="630" />
              <mxPoint x="-110" y="610" />
            </Array>
          </mxGeometry>
        </mxCell>
        <mxCell id="HHdXXKOPEjyAczzVmKq9-85" value="" style="curved=1;endArrow=none;html=1;rounded=0;endFill=0;exitX=0;exitY=0.5;exitDx=0;exitDy=0;entryX=1;entryY=0.3333333333333333;entryDx=0;entryDy=0;entryPerimeter=0;" edge="1" parent="1" source="HHdXXKOPEjyAczzVmKq9-20" target="HHdXXKOPEjyAczzVmKq9-1">
          <mxGeometry width="50" height="50" relative="1" as="geometry">
            <mxPoint x="100" y="885" as="sourcePoint" />
            <mxPoint x="-170" y="605" as="targetPoint" />
            <Array as="points">
              <mxPoint x="-290" y="860" />
              <mxPoint x="-10" y="690" />
              <mxPoint x="-10" y="670" />
              <mxPoint x="-10" y="660" />
              <mxPoint x="-20" y="640" />
              <mxPoint x="-100" y="620" />
            </Array>
          </mxGeometry>
        </mxCell>
        <mxCell id="HHdXXKOPEjyAczzVmKq9-86" value="" style="curved=1;endArrow=none;html=1;rounded=0;endFill=0;exitX=-0.014;exitY=0.374;exitDx=0;exitDy=0;entryX=1;entryY=0.3333333333333333;entryDx=0;entryDy=0;entryPerimeter=0;exitPerimeter=0;" edge="1" parent="1" source="HHdXXKOPEjyAczzVmKq9-21" target="HHdXXKOPEjyAczzVmKq9-1">
          <mxGeometry width="50" height="50" relative="1" as="geometry">
            <mxPoint x="110" y="895" as="sourcePoint" />
            <mxPoint x="-160" y="615" as="targetPoint" />
            <Array as="points">
              <mxPoint x="-310" y="860" />
              <mxPoint y="700" />
              <mxPoint y="680" />
              <mxPoint y="670" />
              <mxPoint x="-10" y="650" />
              <mxPoint x="-90" y="630" />
            </Array>
          </mxGeometry>
        </mxCell>
        <mxCell id="HHdXXKOPEjyAczzVmKq9-87" value="" style="curved=1;endArrow=none;html=1;rounded=0;endFill=0;exitX=0;exitY=0.5;exitDx=0;exitDy=0;entryX=1;entryY=0.3333333333333333;entryDx=0;entryDy=0;entryPerimeter=0;" edge="1" parent="1" source="HHdXXKOPEjyAczzVmKq9-22" target="HHdXXKOPEjyAczzVmKq9-1">
          <mxGeometry width="50" height="50" relative="1" as="geometry">
            <mxPoint x="120" y="905" as="sourcePoint" />
            <mxPoint x="-150" y="625" as="targetPoint" />
            <Array as="points">
              <mxPoint x="-330" y="850" />
              <mxPoint x="10" y="710" />
              <mxPoint x="10" y="690" />
              <mxPoint x="10" y="680" />
              <mxPoint y="660" />
              <mxPoint x="-80" y="640" />
            </Array>
          </mxGeometry>
        </mxCell>
        <mxCell id="HHdXXKOPEjyAczzVmKq9-88" value="" style="curved=1;endArrow=none;html=1;rounded=0;endFill=0;exitX=0;exitY=0.5;exitDx=0;exitDy=0;entryX=1;entryY=0.3333333333333333;entryDx=0;entryDy=0;entryPerimeter=0;" edge="1" parent="1" source="HHdXXKOPEjyAczzVmKq9-23" target="HHdXXKOPEjyAczzVmKq9-1">
          <mxGeometry width="50" height="50" relative="1" as="geometry">
            <mxPoint x="130" y="915" as="sourcePoint" />
            <mxPoint x="-140" y="635" as="targetPoint" />
            <Array as="points">
              <mxPoint x="-350" y="850" />
              <mxPoint x="20" y="720" />
              <mxPoint x="20" y="700" />
              <mxPoint x="20" y="690" />
              <mxPoint x="10" y="670" />
              <mxPoint x="-70" y="650" />
            </Array>
          </mxGeometry>
        </mxCell>
        <mxCell id="HHdXXKOPEjyAczzVmKq9-89" value="" style="curved=1;endArrow=none;html=1;rounded=0;endFill=0;exitX=0;exitY=0.5;exitDx=0;exitDy=0;entryX=1;entryY=0.3333333333333333;entryDx=0;entryDy=0;entryPerimeter=0;" edge="1" parent="1" source="HHdXXKOPEjyAczzVmKq9-24" target="HHdXXKOPEjyAczzVmKq9-1">
          <mxGeometry width="50" height="50" relative="1" as="geometry">
            <mxPoint x="140" y="925" as="sourcePoint" />
            <mxPoint x="-130" y="645" as="targetPoint" />
            <Array as="points">
              <mxPoint x="-370" y="860" />
              <mxPoint x="30" y="730" />
              <mxPoint x="30" y="710" />
              <mxPoint x="30" y="700" />
              <mxPoint x="20" y="680" />
              <mxPoint x="-60" y="660" />
            </Array>
          </mxGeometry>
        </mxCell>
        <mxCell id="HHdXXKOPEjyAczzVmKq9-91" value="Scanare cod QR utilizator" style="ellipse;whiteSpace=wrap;html=1;" vertex="1" parent="1">
          <mxGeometry x="890" y="715" width="90" height="50" as="geometry" />
        </mxCell>
        <mxCell id="HHdXXKOPEjyAczzVmKq9-92" value="Introducerea numărului de puncte de retras" style="ellipse;whiteSpace=wrap;html=1;" vertex="1" parent="1">
          <mxGeometry x="990" y="660" width="120" height="60" as="geometry" />
        </mxCell>
        <mxCell id="HHdXXKOPEjyAczzVmKq9-93" value="Retragere puncte utilizator" style="ellipse;whiteSpace=wrap;html=1;" vertex="1" parent="1">
          <mxGeometry x="1045" y="860" width="100" height="50" as="geometry" />
        </mxCell>
        <mxCell id="HHdXXKOPEjyAczzVmKq9-94" value="Vizualizare istoric retrageri" style="ellipse;whiteSpace=wrap;html=1;" vertex="1" parent="1">
          <mxGeometry x="1055" y="960" width="90" height="50" as="geometry" />
        </mxCell>
        <mxCell id="HHdXXKOPEjyAczzVmKq9-96" value="" style="endArrow=classic;dashed=1;html=1;rounded=0;exitX=1;exitY=0.5;exitDx=0;exitDy=0;entryX=0.713;entryY=0.038;entryDx=0;entryDy=0;entryPerimeter=0;endFill=1;" edge="1" parent="1" source="HHdXXKOPEjyAczzVmKq9-5" target="HHdXXKOPEjyAczzVmKq9-4">
          <mxGeometry width="50" height="50" relative="1" as="geometry">
            <mxPoint x="430" y="220" as="sourcePoint" />
            <mxPoint x="470" y="290" as="targetPoint" />
          </mxGeometry>
        </mxCell>
        <mxCell id="HHdXXKOPEjyAczzVmKq9-97" value="" style="endArrow=classic;dashed=1;html=1;rounded=0;exitX=1;exitY=0.5;exitDx=0;exitDy=0;entryX=0.592;entryY=-0.004;entryDx=0;entryDy=0;entryPerimeter=0;endFill=1;" edge="1" parent="1" source="HHdXXKOPEjyAczzVmKq9-6" target="HHdXXKOPEjyAczzVmKq9-4">
          <mxGeometry width="50" height="50" relative="1" as="geometry">
            <mxPoint x="140" y="135" as="sourcePoint" />
            <mxPoint x="374" y="522" as="targetPoint" />
          </mxGeometry>
        </mxCell>
        <mxCell id="HHdXXKOPEjyAczzVmKq9-98" value="" style="endArrow=classic;dashed=1;html=1;rounded=0;exitX=1;exitY=1;exitDx=0;exitDy=0;entryX=0.5;entryY=0;entryDx=0;entryDy=0;endFill=1;" edge="1" parent="1" source="HHdXXKOPEjyAczzVmKq9-7" target="HHdXXKOPEjyAczzVmKq9-4">
          <mxGeometry width="50" height="50" relative="1" as="geometry">
            <mxPoint x="150" y="145" as="sourcePoint" />
            <mxPoint x="384" y="532" as="targetPoint" />
          </mxGeometry>
        </mxCell>
        <mxCell id="HHdXXKOPEjyAczzVmKq9-99" value="" style="endArrow=classic;dashed=1;html=1;rounded=0;exitX=1;exitY=0.5;exitDx=0;exitDy=0;entryX=0.354;entryY=0.012;entryDx=0;entryDy=0;entryPerimeter=0;endFill=1;" edge="1" parent="1" source="HHdXXKOPEjyAczzVmKq9-8" target="HHdXXKOPEjyAczzVmKq9-4">
          <mxGeometry width="50" height="50" relative="1" as="geometry">
            <mxPoint x="160" y="155" as="sourcePoint" />
            <mxPoint x="394" y="542" as="targetPoint" />
          </mxGeometry>
        </mxCell>
        <mxCell id="HHdXXKOPEjyAczzVmKq9-100" value="" style="endArrow=classic;dashed=1;html=1;rounded=0;exitX=1;exitY=0.5;exitDx=0;exitDy=0;entryX=0.279;entryY=0.047;entryDx=0;entryDy=0;entryPerimeter=0;endFill=1;" edge="1" parent="1" source="HHdXXKOPEjyAczzVmKq9-9" target="HHdXXKOPEjyAczzVmKq9-4">
          <mxGeometry width="50" height="50" relative="1" as="geometry">
            <mxPoint x="86" y="123" as="sourcePoint" />
            <mxPoint x="330" y="510" as="targetPoint" />
          </mxGeometry>
        </mxCell>
        <mxCell id="HHdXXKOPEjyAczzVmKq9-101" value="" style="endArrow=classic;dashed=1;html=1;rounded=0;exitX=1;exitY=0.5;exitDx=0;exitDy=0;entryX=0;entryY=0;entryDx=0;entryDy=0;endFill=1;" edge="1" parent="1" source="HHdXXKOPEjyAczzVmKq9-10" target="HHdXXKOPEjyAczzVmKq9-4">
          <mxGeometry width="50" height="50" relative="1" as="geometry">
            <mxPoint x="180" y="175" as="sourcePoint" />
            <mxPoint x="414" y="562" as="targetPoint" />
          </mxGeometry>
        </mxCell>
        <mxCell id="HHdXXKOPEjyAczzVmKq9-102" value="" style="endArrow=classic;dashed=1;html=1;rounded=0;exitX=1;exitY=0.5;exitDx=0;exitDy=0;entryX=0.019;entryY=0.327;entryDx=0;entryDy=0;entryPerimeter=0;endFill=1;" edge="1" parent="1" source="HHdXXKOPEjyAczzVmKq9-11" target="HHdXXKOPEjyAczzVmKq9-4">
          <mxGeometry width="50" height="50" relative="1" as="geometry">
            <mxPoint x="140" y="525" as="sourcePoint" />
            <mxPoint x="323" y="527" as="targetPoint" />
          </mxGeometry>
        </mxCell>
        <mxCell id="HHdXXKOPEjyAczzVmKq9-103" value="" style="endArrow=classic;dashed=1;html=1;rounded=0;exitX=1.019;exitY=0.407;exitDx=0;exitDy=0;entryX=-0.02;entryY=0.513;entryDx=0;entryDy=0;exitPerimeter=0;entryPerimeter=0;endFill=1;" edge="1" parent="1" source="HHdXXKOPEjyAczzVmKq9-12" target="HHdXXKOPEjyAczzVmKq9-4">
          <mxGeometry width="50" height="50" relative="1" as="geometry">
            <mxPoint x="150" y="535" as="sourcePoint" />
            <mxPoint x="333" y="537" as="targetPoint" />
          </mxGeometry>
        </mxCell>
        <mxCell id="HHdXXKOPEjyAczzVmKq9-104" value="" style="endArrow=classic;dashed=1;html=1;rounded=0;exitX=1;exitY=0.5;exitDx=0;exitDy=0;entryX=0.011;entryY=0.607;entryDx=0;entryDy=0;entryPerimeter=0;endFill=1;" edge="1" parent="1" source="HHdXXKOPEjyAczzVmKq9-13" target="HHdXXKOPEjyAczzVmKq9-4">
          <mxGeometry width="50" height="50" relative="1" as="geometry">
            <mxPoint x="160" y="545" as="sourcePoint" />
            <mxPoint x="343" y="547" as="targetPoint" />
          </mxGeometry>
        </mxCell>
        <mxCell id="HHdXXKOPEjyAczzVmKq9-105" value="" style="endArrow=classic;dashed=1;html=1;rounded=0;exitX=1.011;exitY=0.313;exitDx=0;exitDy=0;entryX=0.026;entryY=0.713;entryDx=0;entryDy=0;exitPerimeter=0;entryPerimeter=0;endFill=1;" edge="1" parent="1" source="HHdXXKOPEjyAczzVmKq9-14" target="HHdXXKOPEjyAczzVmKq9-4">
          <mxGeometry width="50" height="50" relative="1" as="geometry">
            <mxPoint x="170" y="555" as="sourcePoint" />
            <mxPoint x="353" y="557" as="targetPoint" />
          </mxGeometry>
        </mxCell>
        <mxCell id="HHdXXKOPEjyAczzVmKq9-106" value="" style="endArrow=classic;dashed=1;html=1;rounded=0;exitX=1;exitY=0.5;exitDx=0;exitDy=0;entryX=0.067;entryY=0.772;entryDx=0;entryDy=0;entryPerimeter=0;endFill=1;" edge="1" parent="1" source="HHdXXKOPEjyAczzVmKq9-15" target="HHdXXKOPEjyAczzVmKq9-4">
          <mxGeometry width="50" height="50" relative="1" as="geometry">
            <mxPoint x="180" y="565" as="sourcePoint" />
            <mxPoint x="363" y="567" as="targetPoint" />
          </mxGeometry>
        </mxCell>
        <mxCell id="HHdXXKOPEjyAczzVmKq9-107" value="" style="endArrow=classic;dashed=1;html=1;rounded=0;exitX=1;exitY=0.34;exitDx=0;exitDy=0;entryX=0;entryY=1;entryDx=0;entryDy=0;exitPerimeter=0;endFill=1;" edge="1" parent="1" source="HHdXXKOPEjyAczzVmKq9-16" target="HHdXXKOPEjyAczzVmKq9-4">
          <mxGeometry width="50" height="50" relative="1" as="geometry">
            <mxPoint x="190" y="575" as="sourcePoint" />
            <mxPoint x="373" y="577" as="targetPoint" />
          </mxGeometry>
        </mxCell>
        <mxCell id="HHdXXKOPEjyAczzVmKq9-108" value="" style="endArrow=classic;dashed=1;html=1;rounded=0;exitX=1.009;exitY=0.356;exitDx=0;exitDy=0;entryX=0.244;entryY=0.884;entryDx=0;entryDy=0;exitPerimeter=0;entryPerimeter=0;endFill=1;" edge="1" parent="1" source="HHdXXKOPEjyAczzVmKq9-17" target="HHdXXKOPEjyAczzVmKq9-4">
          <mxGeometry width="50" height="50" relative="1" as="geometry">
            <mxPoint x="200" y="585" as="sourcePoint" />
            <mxPoint x="383" y="587" as="targetPoint" />
          </mxGeometry>
        </mxCell>
        <mxCell id="HHdXXKOPEjyAczzVmKq9-109" value="" style="endArrow=classic;dashed=1;html=1;rounded=0;exitX=1.036;exitY=0.34;exitDx=0;exitDy=0;entryX=0.321;entryY=0.945;entryDx=0;entryDy=0;exitPerimeter=0;entryPerimeter=0;endFill=1;" edge="1" parent="1" source="HHdXXKOPEjyAczzVmKq9-18" target="HHdXXKOPEjyAczzVmKq9-4">
          <mxGeometry width="50" height="50" relative="1" as="geometry">
            <mxPoint x="210" y="595" as="sourcePoint" />
            <mxPoint x="393" y="597" as="targetPoint" />
          </mxGeometry>
        </mxCell>
        <mxCell id="HHdXXKOPEjyAczzVmKq9-110" value="" style="endArrow=classic;dashed=1;html=1;rounded=0;exitX=1.027;exitY=0.404;exitDx=0;exitDy=0;entryX=0.404;entryY=0.977;entryDx=0;entryDy=0;exitPerimeter=0;entryPerimeter=0;endFill=1;" edge="1" parent="1" source="HHdXXKOPEjyAczzVmKq9-19" target="HHdXXKOPEjyAczzVmKq9-4">
          <mxGeometry width="50" height="50" relative="1" as="geometry">
            <mxPoint x="220" y="605" as="sourcePoint" />
            <mxPoint x="403" y="607" as="targetPoint" />
          </mxGeometry>
        </mxCell>
        <mxCell id="HHdXXKOPEjyAczzVmKq9-111" value="" style="endArrow=classic;dashed=1;html=1;rounded=0;exitX=1.018;exitY=0.372;exitDx=0;exitDy=0;entryX=0.5;entryY=1;entryDx=0;entryDy=0;exitPerimeter=0;endFill=1;" edge="1" parent="1" source="HHdXXKOPEjyAczzVmKq9-20" target="HHdXXKOPEjyAczzVmKq9-4">
          <mxGeometry width="50" height="50" relative="1" as="geometry">
            <mxPoint x="230" y="615" as="sourcePoint" />
            <mxPoint x="413" y="617" as="targetPoint" />
          </mxGeometry>
        </mxCell>
        <mxCell id="HHdXXKOPEjyAczzVmKq9-112" value="" style="endArrow=classic;dashed=1;html=1;rounded=0;exitX=1;exitY=0.5;exitDx=0;exitDy=0;entryX=0.581;entryY=1.004;entryDx=0;entryDy=0;entryPerimeter=0;endFill=1;" edge="1" parent="1" source="HHdXXKOPEjyAczzVmKq9-21" target="HHdXXKOPEjyAczzVmKq9-4">
          <mxGeometry width="50" height="50" relative="1" as="geometry">
            <mxPoint x="240" y="625" as="sourcePoint" />
            <mxPoint x="423" y="627" as="targetPoint" />
          </mxGeometry>
        </mxCell>
        <mxCell id="HHdXXKOPEjyAczzVmKq9-113" value="" style="endArrow=classic;dashed=1;html=1;rounded=0;exitX=1.027;exitY=0.324;exitDx=0;exitDy=0;entryX=0.667;entryY=0.972;entryDx=0;entryDy=0;exitPerimeter=0;entryPerimeter=0;endFill=1;" edge="1" parent="1" source="HHdXXKOPEjyAczzVmKq9-22" target="HHdXXKOPEjyAczzVmKq9-4">
          <mxGeometry width="50" height="50" relative="1" as="geometry">
            <mxPoint x="250" y="635" as="sourcePoint" />
            <mxPoint x="433" y="637" as="targetPoint" />
          </mxGeometry>
        </mxCell>
        <mxCell id="HHdXXKOPEjyAczzVmKq9-114" value="" style="endArrow=classic;dashed=1;html=1;rounded=0;exitX=1;exitY=0.5;exitDx=0;exitDy=0;entryX=0.718;entryY=0.956;entryDx=0;entryDy=0;entryPerimeter=0;endFill=1;" edge="1" parent="1" source="HHdXXKOPEjyAczzVmKq9-23" target="HHdXXKOPEjyAczzVmKq9-4">
          <mxGeometry width="50" height="50" relative="1" as="geometry">
            <mxPoint x="260" y="645" as="sourcePoint" />
            <mxPoint x="443" y="647" as="targetPoint" />
          </mxGeometry>
        </mxCell>
        <mxCell id="HHdXXKOPEjyAczzVmKq9-115" value="" style="endArrow=classic;dashed=1;html=1;rounded=0;exitX=1;exitY=0.5;exitDx=0;exitDy=0;entryX=0.796;entryY=0.884;entryDx=0;entryDy=0;entryPerimeter=0;endFill=1;" edge="1" parent="1" source="HHdXXKOPEjyAczzVmKq9-24" target="HHdXXKOPEjyAczzVmKq9-4">
          <mxGeometry width="50" height="50" relative="1" as="geometry">
            <mxPoint x="270" y="655" as="sourcePoint" />
            <mxPoint x="453" y="657" as="targetPoint" />
          </mxGeometry>
        </mxCell>
        <mxCell id="HHdXXKOPEjyAczzVmKq9-116" value="&amp;lt;&amp;lt;include&amp;gt;&amp;gt;" style="text;html=1;align=center;verticalAlign=middle;whiteSpace=wrap;rounded=0;rotation=60;" vertex="1" parent="1">
          <mxGeometry x="370" y="400" width="50" height="20" as="geometry" />
        </mxCell>
        <mxCell id="HHdXXKOPEjyAczzVmKq9-117" value="&amp;lt;&amp;lt;include&amp;gt;&amp;gt;" style="text;html=1;align=center;verticalAlign=middle;whiteSpace=wrap;rounded=0;rotation=55;" vertex="1" parent="1">
          <mxGeometry x="340" y="400" width="50" height="20" as="geometry" />
        </mxCell>
        <mxCell id="HHdXXKOPEjyAczzVmKq9-118" value="&amp;lt;&amp;lt;include&amp;gt;&amp;gt;" style="text;html=1;align=center;verticalAlign=middle;whiteSpace=wrap;rounded=0;rotation=60;" vertex="1" parent="1">
          <mxGeometry x="320" y="430" width="50" height="20" as="geometry" />
        </mxCell>
        <mxCell id="HHdXXKOPEjyAczzVmKq9-119" value="&amp;lt;&amp;lt;include&amp;gt;&amp;gt;" style="text;html=1;align=center;verticalAlign=middle;whiteSpace=wrap;rounded=0;rotation=40;" vertex="1" parent="1">
          <mxGeometry x="280" y="490" width="50" height="20" as="geometry" />
        </mxCell>
        <mxCell id="HHdXXKOPEjyAczzVmKq9-120" value="&amp;lt;&amp;lt;include&amp;gt;&amp;gt;" style="text;html=1;align=center;verticalAlign=middle;whiteSpace=wrap;rounded=0;rotation=40;" vertex="1" parent="1">
          <mxGeometry x="250" y="520" width="50" height="20" as="geometry" />
        </mxCell>
        <mxCell id="HHdXXKOPEjyAczzVmKq9-121" value="&amp;lt;&amp;lt;include&amp;gt;&amp;gt;" style="text;html=1;align=center;verticalAlign=middle;whiteSpace=wrap;rounded=0;rotation=35;" vertex="1" parent="1">
          <mxGeometry x="210" y="560" width="50" height="20" as="geometry" />
        </mxCell>
        <mxCell id="HHdXXKOPEjyAczzVmKq9-122" value="&amp;lt;&amp;lt;include&amp;gt;&amp;gt;" style="text;html=1;align=center;verticalAlign=middle;whiteSpace=wrap;rounded=0;rotation=25;" vertex="1" parent="1">
          <mxGeometry x="200" y="620" width="50" height="20" as="geometry" />
        </mxCell>
        <mxCell id="HHdXXKOPEjyAczzVmKq9-123" value="&amp;lt;&amp;lt;include&amp;gt;&amp;gt;" style="text;html=1;align=center;verticalAlign=middle;whiteSpace=wrap;rounded=0;rotation=25;" vertex="1" parent="1">
          <mxGeometry x="200" y="680" width="50" height="20" as="geometry" />
        </mxCell>
        <mxCell id="HHdXXKOPEjyAczzVmKq9-125" value="&amp;lt;&amp;lt;include&amp;gt;&amp;gt;" style="text;html=1;align=center;verticalAlign=middle;whiteSpace=wrap;rounded=0;rotation=10;" vertex="1" parent="1">
          <mxGeometry x="200" y="745" width="50" height="20" as="geometry" />
        </mxCell>
        <mxCell id="HHdXXKOPEjyAczzVmKq9-126" value="&amp;lt;&amp;lt;include&amp;gt;&amp;gt;" style="text;html=1;align=center;verticalAlign=middle;whiteSpace=wrap;rounded=0;rotation=0;" vertex="1" parent="1">
          <mxGeometry x="190" y="795" width="50" height="20" as="geometry" />
        </mxCell>
        <mxCell id="HHdXXKOPEjyAczzVmKq9-127" value="&amp;lt;&amp;lt;include&amp;gt;&amp;gt;" style="text;html=1;align=center;verticalAlign=middle;whiteSpace=wrap;rounded=0;rotation=-15;" vertex="1" parent="1">
          <mxGeometry x="180" y="860" width="50" height="20" as="geometry" />
        </mxCell>
        <mxCell id="HHdXXKOPEjyAczzVmKq9-128" value="&amp;lt;&amp;lt;include&amp;gt;&amp;gt;" style="text;html=1;align=center;verticalAlign=middle;whiteSpace=wrap;rounded=0;rotation=-15;" vertex="1" parent="1">
          <mxGeometry x="190" y="920" width="50" height="20" as="geometry" />
        </mxCell>
        <mxCell id="HHdXXKOPEjyAczzVmKq9-129" value="&amp;lt;&amp;lt;include&amp;gt;&amp;gt;" style="text;html=1;align=center;verticalAlign=middle;whiteSpace=wrap;rounded=0;rotation=-30;" vertex="1" parent="1">
          <mxGeometry x="200" y="980" width="50" height="20" as="geometry" />
        </mxCell>
        <mxCell id="HHdXXKOPEjyAczzVmKq9-130" value="&amp;lt;&amp;lt;include&amp;gt;&amp;gt;" style="text;html=1;align=center;verticalAlign=middle;whiteSpace=wrap;rounded=0;rotation=-30;" vertex="1" parent="1">
          <mxGeometry x="190" y="1050" width="50" height="20" as="geometry" />
        </mxCell>
        <mxCell id="HHdXXKOPEjyAczzVmKq9-133" value="&amp;lt;&amp;lt;include&amp;gt;&amp;gt;" style="text;html=1;align=center;verticalAlign=middle;whiteSpace=wrap;rounded=0;rotation=-40;" vertex="1" parent="1">
          <mxGeometry x="210" y="1100" width="50" height="20" as="geometry" />
        </mxCell>
        <mxCell id="HHdXXKOPEjyAczzVmKq9-134" value="&amp;lt;&amp;lt;include&amp;gt;&amp;gt;" style="text;html=1;align=center;verticalAlign=middle;whiteSpace=wrap;rounded=0;rotation=-45;" vertex="1" parent="1">
          <mxGeometry x="240" y="1140" width="50" height="20" as="geometry" />
        </mxCell>
        <mxCell id="HHdXXKOPEjyAczzVmKq9-135" value="&amp;lt;&amp;lt;include&amp;gt;&amp;gt;" style="text;html=1;align=center;verticalAlign=middle;whiteSpace=wrap;rounded=0;rotation=-45;" vertex="1" parent="1">
          <mxGeometry x="270" y="1160" width="50" height="20" as="geometry" />
        </mxCell>
        <mxCell id="HHdXXKOPEjyAczzVmKq9-136" value="&amp;lt;&amp;lt;include&amp;gt;&amp;gt;" style="text;html=1;align=center;verticalAlign=middle;whiteSpace=wrap;rounded=0;rotation=-50;" vertex="1" parent="1">
          <mxGeometry x="300" y="1180" width="50" height="20" as="geometry" />
        </mxCell>
        <mxCell id="HHdXXKOPEjyAczzVmKq9-138" value="&amp;lt;&amp;lt;include&amp;gt;&amp;gt;" style="text;html=1;align=center;verticalAlign=middle;whiteSpace=wrap;rounded=0;rotation=-55;" vertex="1" parent="1">
          <mxGeometry x="330" y="1190" width="50" height="20" as="geometry" />
        </mxCell>
        <mxCell id="HHdXXKOPEjyAczzVmKq9-139" value="&amp;lt;&amp;lt;include&amp;gt;&amp;gt;" style="text;html=1;align=center;verticalAlign=middle;whiteSpace=wrap;rounded=0;rotation=-60;" vertex="1" parent="1">
          <mxGeometry x="360" y="1190" width="50" height="20" as="geometry" />
        </mxCell>
        <mxCell id="HHdXXKOPEjyAczzVmKq9-146" value="" style="endArrow=classic;dashed=1;html=1;rounded=0;exitX=0;exitY=0;exitDx=0;exitDy=0;entryX=0.5;entryY=1;entryDx=0;entryDy=0;endFill=1;" edge="1" parent="1" source="HHdXXKOPEjyAczzVmKq9-93" target="HHdXXKOPEjyAczzVmKq9-91">
          <mxGeometry width="50" height="50" relative="1" as="geometry">
            <mxPoint x="600" y="326.5" as="sourcePoint" />
            <mxPoint x="1084" y="993.5" as="targetPoint" />
          </mxGeometry>
        </mxCell>
        <mxCell id="HHdXXKOPEjyAczzVmKq9-147" value="" style="endArrow=classic;dashed=1;html=1;rounded=0;exitX=0.5;exitY=0;exitDx=0;exitDy=0;entryX=0.5;entryY=1;entryDx=0;entryDy=0;endFill=1;" edge="1" parent="1" source="HHdXXKOPEjyAczzVmKq9-93" target="HHdXXKOPEjyAczzVmKq9-92">
          <mxGeometry width="50" height="50" relative="1" as="geometry">
            <mxPoint x="1050" y="875" as="sourcePoint" />
            <mxPoint x="981" y="839" as="targetPoint" />
          </mxGeometry>
        </mxCell>
        <mxCell id="HHdXXKOPEjyAczzVmKq9-149" value="Filtrari istoric retrageri" style="ellipse;whiteSpace=wrap;html=1;" vertex="1" parent="1">
          <mxGeometry x="1055" y="1050" width="90" height="50" as="geometry" />
        </mxCell>
        <mxCell id="HHdXXKOPEjyAczzVmKq9-150" value="Sortari istoric retrageri" style="ellipse;whiteSpace=wrap;html=1;" vertex="1" parent="1">
          <mxGeometry x="1055" y="1140" width="90" height="50" as="geometry" />
        </mxCell>
        <mxCell id="HHdXXKOPEjyAczzVmKq9-151" style="edgeStyle=orthogonalEdgeStyle;rounded=0;orthogonalLoop=1;jettySize=auto;html=1;curved=1;endArrow=none;endFill=0;entryX=1;entryY=0.5;entryDx=0;entryDy=0;exitX=0;exitY=0.3333333333333333;exitDx=0;exitDy=0;exitPerimeter=0;" edge="1" parent="1" source="HHdXXKOPEjyAczzVmKq9-2" target="HHdXXKOPEjyAczzVmKq9-93">
          <mxGeometry relative="1" as="geometry">
            <mxPoint x="1090" y="1275" as="sourcePoint" />
            <mxPoint x="1360" y="785" as="targetPoint" />
            <Array as="points">
              <mxPoint x="1260" y="995" />
              <mxPoint x="1260" y="880" />
              <mxPoint x="1145" y="880" />
            </Array>
          </mxGeometry>
        </mxCell>
        <mxCell id="HHdXXKOPEjyAczzVmKq9-152" style="edgeStyle=orthogonalEdgeStyle;rounded=0;orthogonalLoop=1;jettySize=auto;html=1;curved=1;endArrow=none;endFill=0;exitX=0;exitY=0.3333333333333333;exitDx=0;exitDy=0;exitPerimeter=0;entryX=1;entryY=0.5;entryDx=0;entryDy=0;" edge="1" parent="1" source="HHdXXKOPEjyAczzVmKq9-2" target="HHdXXKOPEjyAczzVmKq9-94">
          <mxGeometry relative="1" as="geometry">
            <mxPoint x="1280" y="1005" as="sourcePoint" />
            <mxPoint x="1190" y="970" as="targetPoint" />
            <Array as="points">
              <mxPoint x="1270" y="990" />
              <mxPoint x="1150" y="990" />
              <mxPoint x="1150" y="985" />
            </Array>
          </mxGeometry>
        </mxCell>
        <mxCell id="HHdXXKOPEjyAczzVmKq9-153" style="edgeStyle=orthogonalEdgeStyle;rounded=0;orthogonalLoop=1;jettySize=auto;html=1;curved=1;endArrow=none;endFill=0;entryX=1;entryY=0.5;entryDx=0;entryDy=0;exitX=0;exitY=0.3333333333333333;exitDx=0;exitDy=0;exitPerimeter=0;" edge="1" parent="1" source="HHdXXKOPEjyAczzVmKq9-2">
          <mxGeometry relative="1" as="geometry">
            <mxPoint x="1270" y="1000" as="sourcePoint" />
            <mxPoint x="1145" y="1075" as="targetPoint" />
            <Array as="points">
              <mxPoint x="1270" y="1000" />
              <mxPoint x="1210" y="1000" />
              <mxPoint x="1210" y="1075" />
            </Array>
          </mxGeometry>
        </mxCell>
        <mxCell id="HHdXXKOPEjyAczzVmKq9-154" style="edgeStyle=orthogonalEdgeStyle;rounded=0;orthogonalLoop=1;jettySize=auto;html=1;curved=1;endArrow=none;endFill=0;entryX=1;entryY=0.5;entryDx=0;entryDy=0;exitX=0;exitY=0.3333333333333333;exitDx=0;exitDy=0;exitPerimeter=0;" edge="1" parent="1" source="HHdXXKOPEjyAczzVmKq9-2" target="HHdXXKOPEjyAczzVmKq9-150">
          <mxGeometry relative="1" as="geometry">
            <mxPoint x="1280" y="1005" as="sourcePoint" />
            <mxPoint x="1155" y="1085" as="targetPoint" />
            <Array as="points">
              <mxPoint x="1270" y="1010" />
              <mxPoint x="1220" y="1010" />
              <mxPoint x="1220" y="1120" />
              <mxPoint x="1180" y="1120" />
              <mxPoint x="1180" y="1165" />
            </Array>
          </mxGeometry>
        </mxCell>
        <mxCell id="HHdXXKOPEjyAczzVmKq9-155" value="" style="endArrow=classic;dashed=1;html=1;rounded=0;exitX=0;exitY=0.5;exitDx=0;exitDy=0;entryX=1;entryY=0.5;entryDx=0;entryDy=0;endFill=1;" edge="1" parent="1" source="HHdXXKOPEjyAczzVmKq9-93" target="HHdXXKOPEjyAczzVmKq9-4">
          <mxGeometry width="50" height="50" relative="1" as="geometry">
            <mxPoint x="378" y="1701" as="sourcePoint" />
            <mxPoint x="870" y="920" as="targetPoint" />
          </mxGeometry>
        </mxCell>
        <mxCell id="HHdXXKOPEjyAczzVmKq9-156" value="&amp;lt;&amp;lt;include&amp;gt;&amp;gt;" style="text;html=1;align=center;verticalAlign=middle;whiteSpace=wrap;rounded=0;rotation=15;" vertex="1" parent="1">
          <mxGeometry x="790" y="820" width="50" height="20" as="geometry" />
        </mxCell>
        <mxCell id="HHdXXKOPEjyAczzVmKq9-157" value="&amp;lt;&amp;lt;include&amp;gt;&amp;gt;" style="text;html=1;align=center;verticalAlign=middle;whiteSpace=wrap;rounded=0;rotation=45;" vertex="1" parent="1">
          <mxGeometry x="990" y="805" width="50" height="20" as="geometry" />
        </mxCell>
        <mxCell id="HHdXXKOPEjyAczzVmKq9-158" value="&amp;lt;&amp;lt;include&amp;gt;&amp;gt;" style="text;html=1;align=center;verticalAlign=middle;whiteSpace=wrap;rounded=0;rotation=75;" vertex="1" parent="1">
          <mxGeometry x="1060" y="780" width="50" height="20" as="geometry" />
        </mxCell>
        <mxCell id="HHdXXKOPEjyAczzVmKq9-161" value="" style="endArrow=classic;dashed=1;html=1;rounded=0;exitX=0;exitY=0.5;exitDx=0;exitDy=0;entryX=0.986;entryY=0.668;entryDx=0;entryDy=0;endFill=1;entryPerimeter=0;" edge="1" parent="1" source="HHdXXKOPEjyAczzVmKq9-94" target="HHdXXKOPEjyAczzVmKq9-4">
          <mxGeometry width="50" height="50" relative="1" as="geometry">
            <mxPoint x="1055" y="895" as="sourcePoint" />
            <mxPoint x="650" y="825" as="targetPoint" />
          </mxGeometry>
        </mxCell>
        <mxCell id="HHdXXKOPEjyAczzVmKq9-162" value="" style="endArrow=classic;dashed=1;html=1;rounded=0;exitX=0;exitY=0.5;exitDx=0;exitDy=0;endFill=1;entryX=0.939;entryY=0.711;entryDx=0;entryDy=0;entryPerimeter=0;" edge="1" parent="1" source="HHdXXKOPEjyAczzVmKq9-149" target="HHdXXKOPEjyAczzVmKq9-4">
          <mxGeometry width="50" height="50" relative="1" as="geometry">
            <mxPoint x="1065" y="905" as="sourcePoint" />
            <mxPoint x="660" y="835" as="targetPoint" />
          </mxGeometry>
        </mxCell>
        <mxCell id="HHdXXKOPEjyAczzVmKq9-163" value="" style="endArrow=classic;dashed=1;html=1;rounded=0;exitX=0;exitY=0.5;exitDx=0;exitDy=0;entryX=1;entryY=1;entryDx=0;entryDy=0;endFill=1;" edge="1" parent="1" source="HHdXXKOPEjyAczzVmKq9-150" target="HHdXXKOPEjyAczzVmKq9-4">
          <mxGeometry width="50" height="50" relative="1" as="geometry">
            <mxPoint x="1075" y="915" as="sourcePoint" />
            <mxPoint x="670" y="845" as="targetPoint" />
          </mxGeometry>
        </mxCell>
        <mxCell id="HHdXXKOPEjyAczzVmKq9-164" value="&amp;lt;&amp;lt;include&amp;gt;&amp;gt;" style="text;html=1;align=center;verticalAlign=middle;whiteSpace=wrap;rounded=0;rotation=25;" vertex="1" parent="1">
          <mxGeometry x="827" y="880" width="50" height="20" as="geometry" />
        </mxCell>
        <mxCell id="HHdXXKOPEjyAczzVmKq9-165" value="&amp;lt;&amp;lt;include&amp;gt;&amp;gt;" style="text;html=1;align=center;verticalAlign=middle;whiteSpace=wrap;rounded=0;rotation=30;" vertex="1" parent="1">
          <mxGeometry x="840" y="930" width="50" height="20" as="geometry" />
        </mxCell>
        <mxCell id="HHdXXKOPEjyAczzVmKq9-166" value="&amp;lt;&amp;lt;include&amp;gt;&amp;gt;" style="text;html=1;align=center;verticalAlign=middle;whiteSpace=wrap;rounded=0;rotation=30;" vertex="1" parent="1">
          <mxGeometry x="850" y="995" width="50" height="20" as="geometry" />
        </mxCell>
        <mxCell id="HHdXXKOPEjyAczzVmKq9-168" value="" style="curved=1;endArrow=none;html=1;rounded=0;endFill=0;exitX=0;exitY=0.5;exitDx=0;exitDy=0;entryX=1;entryY=0.3333333333333333;entryDx=0;entryDy=0;entryPerimeter=0;" edge="1" parent="1" source="HHdXXKOPEjyAczzVmKq9-25" target="HHdXXKOPEjyAczzVmKq9-1">
          <mxGeometry width="50" height="50" relative="1" as="geometry">
            <mxPoint x="50" y="1625" as="sourcePoint" />
            <mxPoint x="-220" y="555" as="targetPoint" />
            <Array as="points">
              <mxPoint x="240" y="1710" />
              <mxPoint x="-110" y="1680" />
              <mxPoint x="-310" y="870" />
              <mxPoint x="-310" y="850" />
              <mxPoint x="-310" y="820" />
              <mxPoint x="-290" y="750" />
              <mxPoint x="-260" y="700" />
              <mxPoint x="-250" y="670" />
              <mxPoint x="-230" y="640" />
              <mxPoint x="-220" y="610" />
              <mxPoint x="-220" y="580" />
              <mxPoint x="-220" y="570" />
            </Array>
          </mxGeometry>
        </mxCell>
        <mxCell id="HHdXXKOPEjyAczzVmKq9-169" style="edgeStyle=orthogonalEdgeStyle;rounded=0;orthogonalLoop=1;jettySize=auto;html=1;curved=1;endArrow=none;endFill=0;entryX=1;entryY=0.5;entryDx=0;entryDy=0;exitX=0;exitY=0.3333333333333333;exitDx=0;exitDy=0;exitPerimeter=0;" edge="1" parent="1" source="HHdXXKOPEjyAczzVmKq9-2" target="HHdXXKOPEjyAczzVmKq9-25">
          <mxGeometry relative="1" as="geometry">
            <mxPoint x="1260" y="1030" as="sourcePoint" />
            <mxPoint x="1130" y="1280" as="targetPoint" />
            <Array as="points">
              <mxPoint x="1270" y="1130" />
              <mxPoint x="1255" y="1130" />
              <mxPoint x="1255" y="1150" />
              <mxPoint x="1205" y="1150" />
              <mxPoint x="1205" y="1260" />
              <mxPoint x="720" y="1260" />
              <mxPoint x="720" y="1035" />
            </Array>
          </mxGeometry>
        </mxCell>
        <mxCell id="HHdXXKOPEjyAczzVmKq9-170" value="Cumpărare anunț de tip proiect" style="ellipse;whiteSpace=wrap;html=1;" vertex="1" parent="1">
          <mxGeometry x="40" y="220" width="100" height="50" as="geometry" />
        </mxCell>
        <mxCell id="HHdXXKOPEjyAczzVmKq9-172" style="edgeStyle=orthogonalEdgeStyle;rounded=0;orthogonalLoop=1;jettySize=auto;html=1;curved=1;endArrow=none;endFill=0;entryX=0;entryY=0.5;entryDx=0;entryDy=0;exitX=1;exitY=0.3333333333333333;exitDx=0;exitDy=0;exitPerimeter=0;" edge="1" parent="1" source="HHdXXKOPEjyAczzVmKq9-1" target="HHdXXKOPEjyAczzVmKq9-170">
          <mxGeometry relative="1" as="geometry">
            <mxPoint x="-220" y="555" as="sourcePoint" />
            <mxPoint x="60" y="160" as="targetPoint" />
            <Array as="points">
              <mxPoint x="-220" y="545" />
              <mxPoint x="-220" y="541" />
              <mxPoint x="-35" y="541" />
              <mxPoint x="-35" y="245" />
            </Array>
          </mxGeometry>
        </mxCell>
        <mxCell id="HHdXXKOPEjyAczzVmKq9-173" value="" style="endArrow=classic;dashed=1;html=1;rounded=0;exitX=1.001;exitY=0.602;exitDx=0;exitDy=0;entryX=0;entryY=0;entryDx=0;entryDy=0;endFill=1;exitPerimeter=0;" edge="1" parent="1" source="HHdXXKOPEjyAczzVmKq9-170" target="HHdXXKOPEjyAczzVmKq9-4">
          <mxGeometry width="50" height="50" relative="1" as="geometry">
            <mxPoint x="180" y="260" as="sourcePoint" />
            <mxPoint x="625" y="900" as="targetPoint" />
          </mxGeometry>
        </mxCell>
        <mxCell id="HHdXXKOPEjyAczzVmKq9-174" value="&amp;lt;&amp;lt;include&amp;gt;&amp;gt;" style="text;html=1;align=center;verticalAlign=middle;whiteSpace=wrap;rounded=0;rotation=60;" vertex="1" parent="1">
          <mxGeometry x="300" y="460" width="50" height="20" as="geometry" />
        </mxCell>
        <mxCell id="HHdXXKOPEjyAczzVmKq9-175" value="Fonduri insuficiente" style="ellipse;whiteSpace=wrap;html=1;" vertex="1" parent="1">
          <mxGeometry x="340" y="70" width="90" height="50" as="geometry" />
        </mxCell>
        <mxCell id="HHdXXKOPEjyAczzVmKq9-176" value="&amp;lt;&amp;lt;extend&amp;gt;&amp;gt;" style="endArrow=open;endSize=12;dashed=1;html=1;rounded=0;exitX=0;exitY=0.5;exitDx=0;exitDy=0;entryX=1;entryY=0.5;entryDx=0;entryDy=0;" edge="1" parent="1" source="HHdXXKOPEjyAczzVmKq9-175" target="HHdXXKOPEjyAczzVmKq9-7">
          <mxGeometry y="-10" width="160" relative="1" as="geometry">
            <mxPoint x="223" y="195" as="sourcePoint" />
            <mxPoint x="130" y="83" as="targetPoint" />
            <mxPoint as="offset" />
          </mxGeometry>
        </mxCell>
        <mxCell id="HHdXXKOPEjyAczzVmKq9-178" value="Fonduri insuficiente creator anunț" style="ellipse;whiteSpace=wrap;html=1;" vertex="1" parent="1">
          <mxGeometry x="330" y="140" width="105" height="60" as="geometry" />
        </mxCell>
        <mxCell id="HHdXXKOPEjyAczzVmKq9-179" value="&amp;lt;&amp;lt;extend&amp;gt;&amp;gt;" style="endArrow=open;endSize=12;dashed=1;html=1;rounded=0;exitX=-0.009;exitY=0.633;exitDx=0;exitDy=0;entryX=1;entryY=0.5;entryDx=0;entryDy=0;exitPerimeter=0;" edge="1" parent="1" source="HHdXXKOPEjyAczzVmKq9-178" target="HHdXXKOPEjyAczzVmKq9-170">
          <mxGeometry y="-10" width="160" relative="1" as="geometry">
            <mxPoint x="355" y="225" as="sourcePoint" />
            <mxPoint x="175" y="305" as="targetPoint" />
            <mxPoint as="offset" />
          </mxGeometry>
        </mxCell>
        <mxCell id="HHdXXKOPEjyAczzVmKq9-181" value="Selecție abilități" style="ellipse;whiteSpace=wrap;html=1;" vertex="1" parent="1">
          <mxGeometry x="460" y="145" width="90" height="50" as="geometry" />
        </mxCell>
        <mxCell id="HHdXXKOPEjyAczzVmKq9-182" value="Participare abilități selectate" style="ellipse;whiteSpace=wrap;html=1;" vertex="1" parent="1">
          <mxGeometry x="580" y="150" width="112.5" height="50" as="geometry" />
        </mxCell>
        <mxCell id="HHdXXKOPEjyAczzVmKq9-183" value="" style="endArrow=classic;dashed=1;html=1;rounded=0;exitX=1.004;exitY=0.549;exitDx=0;exitDy=0;entryX=0;entryY=1;entryDx=0;entryDy=0;endFill=1;exitPerimeter=0;" edge="1" parent="1" source="HHdXXKOPEjyAczzVmKq9-170" target="HHdXXKOPEjyAczzVmKq9-181">
          <mxGeometry width="50" height="50" relative="1" as="geometry">
            <mxPoint x="180" y="259" as="sourcePoint" />
            <mxPoint x="602" y="470" as="targetPoint" />
          </mxGeometry>
        </mxCell>
        <mxCell id="HHdXXKOPEjyAczzVmKq9-184" value="" style="endArrow=classic;dashed=1;html=1;rounded=0;exitX=1.001;exitY=0.579;exitDx=0;exitDy=0;entryX=0.5;entryY=1;entryDx=0;entryDy=0;endFill=1;exitPerimeter=0;" edge="1" parent="1" source="HHdXXKOPEjyAczzVmKq9-170" target="HHdXXKOPEjyAczzVmKq9-182">
          <mxGeometry width="50" height="50" relative="1" as="geometry">
            <mxPoint x="191" y="273" as="sourcePoint" />
            <mxPoint x="347" y="255" as="targetPoint" />
          </mxGeometry>
        </mxCell>
        <mxCell id="HHdXXKOPEjyAczzVmKq9-185" value="&amp;lt;&amp;lt;include&amp;gt;&amp;gt;" style="text;html=1;align=center;verticalAlign=middle;whiteSpace=wrap;rounded=0;rotation=-15;" vertex="1" parent="1">
          <mxGeometry x="290" y="210" width="50" height="20" as="geometry" />
        </mxCell>
        <mxCell id="HHdXXKOPEjyAczzVmKq9-186" value="&amp;lt;&amp;lt;include&amp;gt;&amp;gt;" style="text;html=1;align=center;verticalAlign=middle;whiteSpace=wrap;rounded=0;rotation=-15;" vertex="1" parent="1">
          <mxGeometry x="430" y="200" width="50" height="20" as="geometry" />
        </mxCell>
        <mxCell id="HHdXXKOPEjyAczzVmKq9-187" value="Vizualizare date cont" style="ellipse;whiteSpace=wrap;html=1;" vertex="1" parent="1">
          <mxGeometry x="370" y="260" width="90" height="50" as="geometry" />
        </mxCell>
        <mxCell id="HHdXXKOPEjyAczzVmKq9-188" value="Vizualizare cod QR" style="ellipse;whiteSpace=wrap;html=1;" vertex="1" parent="1">
          <mxGeometry x="490" y="260" width="90" height="50" as="geometry" />
        </mxCell>
        <mxCell id="HHdXXKOPEjyAczzVmKq9-189" value="Vizualizare statistici anunțuri" style="ellipse;whiteSpace=wrap;html=1;" vertex="1" parent="1">
          <mxGeometry x="602.5" y="260" width="90" height="50" as="geometry" />
        </mxCell>
        <mxCell id="HHdXXKOPEjyAczzVmKq9-192" value="" style="endArrow=classic;dashed=1;html=1;rounded=0;exitX=0.983;exitY=0.331;exitDx=0;exitDy=0;entryX=0;entryY=0.5;entryDx=0;entryDy=0;endFill=1;exitPerimeter=0;" edge="1" parent="1" source="HHdXXKOPEjyAczzVmKq9-8" target="HHdXXKOPEjyAczzVmKq9-187">
          <mxGeometry width="50" height="50" relative="1" as="geometry">
            <mxPoint x="128" y="345" as="sourcePoint" />
            <mxPoint x="420" y="270" as="targetPoint" />
          </mxGeometry>
        </mxCell>
        <mxCell id="HHdXXKOPEjyAczzVmKq9-193" value="&amp;lt;&amp;lt;include&amp;gt;&amp;gt;" style="text;html=1;align=center;verticalAlign=middle;whiteSpace=wrap;rounded=0;rotation=-15;" vertex="1" parent="1">
          <mxGeometry x="237" y="292" width="50" height="20" as="geometry" />
        </mxCell>
        <mxCell id="HHdXXKOPEjyAczzVmKq9-194" value="" style="endArrow=classic;dashed=1;html=1;rounded=0;exitX=1.012;exitY=0.447;exitDx=0;exitDy=0;entryX=0;entryY=1;entryDx=0;entryDy=0;endFill=1;exitPerimeter=0;" edge="1" parent="1" source="HHdXXKOPEjyAczzVmKq9-8" target="HHdXXKOPEjyAczzVmKq9-188">
          <mxGeometry width="50" height="50" relative="1" as="geometry">
            <mxPoint x="201" y="283" as="sourcePoint" />
            <mxPoint x="493" y="208" as="targetPoint" />
          </mxGeometry>
        </mxCell>
        <mxCell id="HHdXXKOPEjyAczzVmKq9-195" value="&amp;lt;&amp;lt;include&amp;gt;&amp;gt;" style="text;html=1;align=center;verticalAlign=middle;whiteSpace=wrap;rounded=0;rotation=-15;" vertex="1" parent="1">
          <mxGeometry x="270" y="312" width="50" height="20" as="geometry" />
        </mxCell>
        <mxCell id="HHdXXKOPEjyAczzVmKq9-197" value="" style="endArrow=classic;dashed=1;html=1;rounded=0;entryX=0.5;entryY=1;entryDx=0;entryDy=0;endFill=1;" edge="1" parent="1" target="HHdXXKOPEjyAczzVmKq9-189">
          <mxGeometry width="50" height="50" relative="1" as="geometry">
            <mxPoint x="130" y="360" as="sourcePoint" />
            <mxPoint x="503" y="218" as="targetPoint" />
          </mxGeometry>
        </mxCell>
        <mxCell id="HHdXXKOPEjyAczzVmKq9-198" value="&amp;lt;&amp;lt;include&amp;gt;&amp;gt;" style="text;html=1;align=center;verticalAlign=middle;whiteSpace=wrap;rounded=0;rotation=-10;" vertex="1" parent="1">
          <mxGeometry x="430" y="312" width="50" height="20" as="geometry" />
        </mxCell>
        <mxCell id="HHdXXKOPEjyAczzVmKq9-199" value="Date invalide" style="ellipse;whiteSpace=wrap;html=1;" vertex="1" parent="1">
          <mxGeometry x="807" y="90" width="90" height="50" as="geometry" />
        </mxCell>
        <mxCell id="HHdXXKOPEjyAczzVmKq9-200" value="&amp;lt;&amp;lt;extend&amp;gt;&amp;gt;" style="endArrow=open;endSize=12;dashed=1;html=1;rounded=0;exitX=0.317;exitY=1.04;exitDx=0;exitDy=0;entryX=1;entryY=0.5;entryDx=0;entryDy=0;exitPerimeter=0;" edge="1" parent="1" source="HHdXXKOPEjyAczzVmKq9-199" target="HHdXXKOPEjyAczzVmKq9-9">
          <mxGeometry y="-10" width="160" relative="1" as="geometry">
            <mxPoint x="841.5" y="169" as="sourcePoint" />
            <mxPoint x="692.5" y="251" as="targetPoint" />
            <mxPoint as="offset" />
            <Array as="points">
              <mxPoint x="780" y="360" />
              <mxPoint x="340" y="410" />
            </Array>
          </mxGeometry>
        </mxCell>
        <mxCell id="HHdXXKOPEjyAczzVmKq9-201" value="&amp;lt;&amp;lt;extend&amp;gt;&amp;gt;" style="endArrow=open;endSize=12;dashed=1;html=1;rounded=0;exitX=0;exitY=0.5;exitDx=0;exitDy=0;entryX=1;entryY=0.5;entryDx=0;entryDy=0;" edge="1" parent="1" source="HHdXXKOPEjyAczzVmKq9-199" target="HHdXXKOPEjyAczzVmKq9-5">
          <mxGeometry y="-10" width="160" relative="1" as="geometry">
            <mxPoint x="349" y="198" as="sourcePoint" />
            <mxPoint x="200" y="280" as="targetPoint" />
            <mxPoint as="offset" />
            <Array as="points">
              <mxPoint x="510" y="20" />
            </Array>
          </mxGeometry>
        </mxCell>
        <mxCell id="HHdXXKOPEjyAczzVmKq9-202" value="&amp;lt;&amp;lt;extend&amp;gt;&amp;gt;" style="endArrow=open;endSize=12;dashed=1;html=1;rounded=0;exitX=-0.011;exitY=0.64;exitDx=0;exitDy=0;entryX=1;entryY=0.5;entryDx=0;entryDy=0;exitPerimeter=0;" edge="1" parent="1" source="HHdXXKOPEjyAczzVmKq9-199" target="HHdXXKOPEjyAczzVmKq9-6">
          <mxGeometry y="-10" width="160" relative="1" as="geometry">
            <mxPoint x="359" y="208" as="sourcePoint" />
            <mxPoint x="210" y="290" as="targetPoint" />
            <mxPoint as="offset" />
            <Array as="points">
              <mxPoint x="480" y="50" />
            </Array>
          </mxGeometry>
        </mxCell>
      </root>
    </mxGraphModel>
  </diagram>
</mxfile>
